<svg data-v-fde0c5aa="" xmlns="http://www.w3.org/2000/svg" viewBox="0 0 300 300" class="iconLeft"><!----><defs data-v-fde0c5aa=""><linearGradient data-v-fde0c5aa="" gradientTransform="rotate(25)" id="26593ce6-cb8d-4dc8-a897-92f93a62b90e" x1="0%" y1="0%" x2="100%" y2="0%"><stop data-v-fde0c5aa="" offset="0%" stop-color="#0A3732" stop-opacity="1"></stop><stop data-v-fde0c5aa="" offset="100%" stop-color="#55C388" stop-opacity="1"></stop></linearGradient></defs><rect data-v-fde0c5aa="" fill="url(#26593ce6-cb8d-4dc8-a897-92f93a62b90e)" x="0" y="0" width="300px" height="300px" class="logo-background-square"></rect><defs data-v-fde0c5aa=""><!----></defs><g data-v-fde0c5aa="" id="3ad75595-460f-4311-a9d1-fcbc7fdc09c4" fill="#ffffff" transform="matrix(1.662168025970459,0,0,1.662168025970459,88.23157086691074,137.25117097977125)"><path d="M4.06 12.81L4.06 12.81L4.06 12.81Q2.38 12.81 1.46 11.81L1.46 11.81L1.46 11.81Q0.55 10.81 0.55 9.02L0.55 9.02L0.55 9.02Q0.55 7.18 1.47 6.16L1.47 6.16L1.47 6.16Q2.39 5.14 4.09 5.14L4.09 5.14L4.09 5.14Q5.39 5.14 6.25 5.80L6.25 5.80L6.25 5.80Q7.10 6.45 7.32 7.61L7.32 7.61L5.39 7.70L5.39 7.70Q5.30 7.14 4.98 6.80L4.98 6.80L4.98 6.80Q4.65 6.46 4.05 6.46L4.05 6.46L4.05 6.46Q2.56 6.46 2.56 8.94L2.56 8.94L2.56 8.94Q2.56 11.50 4.07 11.50L4.07 11.50L4.07 11.50Q4.62 11.50 4.99 11.15L4.99 11.15L4.99 11.15Q5.36 10.81 5.45 10.12L5.45 10.12L7.38 10.21L7.38 10.21Q7.27 10.97 6.83 11.57L6.83 11.57L6.83 11.57Q6.39 12.16 5.67 12.49L5.67 12.49L5.67 12.49Q4.96 12.81 4.06 12.81ZM10.47 12.81L10.47 12.81L10.47 12.81Q9.40 12.81 8.80 12.23L8.80 12.23L8.80 12.23Q8.20 11.64 8.20 10.58L8.20 10.58L8.20 10.58Q8.20 9.43 8.94 8.83L8.94 8.83L8.94 8.83Q9.69 8.23 11.12 8.22L11.12 8.22L12.71 8.19L12.71 7.81L12.71 7.81Q12.71 7.09 12.46 6.74L12.46 6.74L12.46 6.74Q12.20 6.38 11.63 6.38L11.63 6.38L11.63 6.38Q11.09 6.38 10.85 6.63L10.85 6.63L10.85 6.63Q10.60 6.87 10.53 7.43L10.53 7.43L8.53 7.33L8.53 7.33Q8.72 6.25 9.52 5.70L9.52 5.70L9.52 5.70Q10.32 5.14 11.71 5.14L11.71 5.14L11.71 5.14Q13.11 5.14 13.87 5.83L13.87 5.83L13.87 5.83Q14.63 6.52 14.63 7.79L14.63 7.79L14.63 10.49L14.63 10.49Q14.63 11.11 14.77 11.34L14.77 11.34L14.77 11.34Q14.91 11.58 15.24 11.58L15.24 11.58L15.24 11.58Q15.46 11.58 15.66 11.54L15.66 11.54L15.66 12.58L15.66 12.58Q15.49 12.62 15.35 12.65L15.35 12.65L15.35 12.65Q15.22 12.69 15.08 12.71L15.08 12.71L15.08 12.71Q14.94 12.73 14.79 12.74L14.79 12.74L14.79 12.74Q14.64 12.76 14.43 12.76L14.43 12.76L14.43 12.76Q13.71 12.76 13.36 12.40L13.36 12.40L13.36 12.40Q13.02 12.04 12.95 11.35L12.95 11.35L12.91 11.35L12.91 11.35Q12.10 12.81 10.47 12.81ZM12.71 9.63L12.71 9.25L11.72 9.26L11.72 9.26Q11.05 9.29 10.77 9.41L10.77 9.41L10.77 9.41Q10.49 9.53 10.35 9.78L10.35 9.78L10.35 9.78Q10.20 10.02 10.20 10.43L10.20 10.43L10.20 10.43Q10.20 10.96 10.44 11.21L10.44 11.21L10.44 11.21Q10.68 11.47 11.09 11.47L11.09 11.47L11.09 11.47Q11.54 11.47 11.91 11.22L11.91 11.22L11.91 11.22Q12.28 10.98 12.50 10.54L12.50 10.54L12.50 10.54Q12.71 10.11 12.71 9.63L12.71 9.63ZM18.47 12.67L16.55 12.67L16.55 7.01L16.55 7.01Q16.55 6.41 16.53 6.00L16.53 6.00L16.53 6.00Q16.52 5.59 16.50 5.28L16.50 5.28L18.33 5.28L18.33 5.28Q18.35 5.40 18.38 6.03L18.38 6.03L18.38 6.03Q18.42 6.65 18.42 6.86L18.42 6.86L18.44 6.86L18.44 6.86Q18.72 6.08 18.94 5.76L18.94 5.76L18.94 5.76Q19.16 5.44 19.46 5.29L19.46 5.29L19.46 5.29Q19.76 5.13 20.21 5.13L20.21 5.13L20.21 5.13Q20.58 5.13 20.81 5.24L20.81 5.24L20.81 6.84L20.81 6.84Q20.34 6.74 19.99 6.74L19.99 6.74L19.99 6.74Q19.27 6.74 18.87 7.32L18.87 7.32L18.87 7.32Q18.47 7.90 18.47 9.04L18.47 9.04L18.47 12.67ZM25.03 12.81L25.03 12.81L25.03 12.81Q23.36 12.81 22.46 11.82L22.46 11.82L22.46 11.82Q21.57 10.83 21.57 8.94L21.57 8.94L21.57 8.94Q21.57 7.11 22.48 6.13L22.48 6.13L22.48 6.13Q23.39 5.14 25.05 5.14L25.05 5.14L25.05 5.14Q26.65 5.14 27.49 6.20L27.49 6.20L27.49 6.20Q28.33 7.25 28.33 9.29L28.33 9.29L28.33 9.34L23.58 9.34L23.58 9.34Q23.58 10.42 23.98 10.98L23.98 10.98L23.98 10.98Q24.38 11.53 25.12 11.53L25.12 11.53L25.12 11.53Q26.14 11.53 26.41 10.64L26.41 10.64L28.22 10.80L28.22 10.80Q27.43 12.81 25.03 12.81ZM25.03 6.35L25.03 6.35L25.03 6.35Q24.35 6.35 23.98 6.82L23.98 6.82L23.98 6.82Q23.62 7.29 23.60 8.14L23.60 8.14L26.47 8.14L26.47 8.14Q26.41 7.25 26.04 6.80L26.04 6.80L26.04 6.80Q25.66 6.35 25.03 6.35ZM40.33 12.67L38.47 12.67L38.47 12.67Q38.44 12.57 38.40 12.16L38.40 12.16L38.40 12.16Q38.36 11.74 38.36 11.47L38.36 11.47L38.34 11.47L38.34 11.47Q37.71 12.81 35.97 12.81L35.97 12.81L35.97 12.81Q34.68 12.81 33.97 11.80L33.97 11.80L33.97 11.80Q33.27 10.79 33.27 8.98L33.27 8.98L33.27 8.98Q33.27 7.14 34.01 6.14L34.01 6.14L34.01 6.14Q34.75 5.14 36.11 5.14L36.11 5.14L36.11 5.14Q36.90 5.14 37.47 5.47L37.47 5.47L37.47 5.47Q38.04 5.80 38.35 6.45L38.35 6.45L38.36 6.45L38.35 5.23L38.35 2.53L40.27 2.53L40.27 11.06L40.27 11.06Q40.27 11.74 40.33 12.67L40.33 12.67ZM38.38 8.93L38.38 8.93L38.38 8.93Q38.38 7.74 37.98 7.09L37.98 7.09L37.98 7.09Q37.58 6.45 36.80 6.45L36.80 6.45L36.80 6.45Q36.03 6.45 35.65 7.07L35.65 7.07L35.65 7.07Q35.27 7.70 35.27 8.98L35.27 8.98L35.27 8.98Q35.27 11.50 36.78 11.50L36.78 11.50L36.78 11.50Q37.54 11.50 37.96 10.83L37.96 10.83L37.96 10.83Q38.38 10.17 38.38 8.93ZM43.93 12.81L43.93 12.81L43.93 12.81Q42.86 12.81 42.26 12.23L42.26 12.23L42.26 12.23Q41.66 11.64 41.66 10.58L41.66 10.58L41.66 10.58Q41.66 9.43 42.41 8.83L42.41 8.83L42.41 8.83Q43.16 8.23 44.58 8.22L44.58 8.22L46.17 8.19L46.17 7.81L46.17 7.81Q46.17 7.09 45.92 6.74L45.92 6.74L45.92 6.74Q45.66 6.38 45.09 6.38L45.09 6.38L45.09 6.38Q44.56 6.38 44.31 6.63L44.31 6.63L44.31 6.63Q44.06 6.87 44.00 7.43L44.00 7.43L41.99 7.33L41.99 7.33Q42.18 6.25 42.98 5.70L42.98 5.70L42.98 5.70Q43.78 5.14 45.17 5.14L45.17 5.14L45.17 5.14Q46.57 5.14 47.33 5.83L47.33 5.83L47.33 5.83Q48.09 6.52 48.09 7.79L48.09 7.79L48.09 10.49L48.09 10.49Q48.09 11.11 48.23 11.34L48.23 11.34L48.23 11.34Q48.37 11.58 48.70 11.58L48.70 11.58L48.70 11.58Q48.92 11.58 49.12 11.54L49.12 11.54L49.12 12.58L49.12 12.58Q48.95 12.62 48.82 12.65L48.82 12.65L48.82 12.65Q48.68 12.69 48.54 12.71L48.54 12.71L48.54 12.71Q48.41 12.73 48.25 12.74L48.25 12.74L48.25 12.74Q48.10 12.76 47.89 12.76L47.89 12.76L47.89 12.76Q47.17 12.76 46.82 12.40L46.82 12.40L46.82 12.40Q46.48 12.04 46.41 11.35L46.41 11.35L46.37 11.35L46.37 11.35Q45.56 12.81 43.93 12.81ZM46.17 9.63L46.17 9.25L45.19 9.26L45.19 9.26Q44.52 9.29 44.24 9.41L44.24 9.41L44.24 9.41Q43.96 9.53 43.81 9.78L43.81 9.78L43.81 9.78Q43.66 10.02 43.66 10.43L43.66 10.43L43.66 10.43Q43.66 10.96 43.90 11.21L43.90 11.21L43.90 11.21Q44.15 11.47 44.55 11.47L44.55 11.47L44.55 11.47Q45.00 11.47 45.37 11.22L45.37 11.22L45.37 11.22Q45.75 10.98 45.96 10.54L45.96 10.54L45.96 10.54Q46.17 10.11 46.17 9.63L46.17 9.63ZM56.25 10.51L56.25 10.51L56.25 10.51Q56.25 11.59 55.37 12.20L55.37 12.20L55.37 12.20Q54.49 12.81 52.94 12.81L52.94 12.81L52.94 12.81Q51.41 12.81 50.60 12.33L50.60 12.33L50.60 12.33Q49.79 11.85 49.53 10.83L49.53 10.83L51.21 10.58L51.21 10.58Q51.36 11.10 51.71 11.32L51.71 11.32L51.71 11.32Q52.06 11.54 52.94 11.54L52.94 11.54L52.94 11.54Q53.74 11.54 54.11 11.33L54.11 11.33L54.11 11.33Q54.48 11.13 54.48 10.69L54.48 10.69L54.48 10.69Q54.48 10.34 54.19 10.13L54.19 10.13L54.19 10.13Q53.89 9.92 53.18 9.78L53.18 9.78L53.18 9.78Q51.55 9.45 50.98 9.18L50.98 9.18L50.98 9.18Q50.42 8.90 50.12 8.46L50.12 8.46L50.12 8.46Q49.82 8.02 49.82 7.38L49.82 7.38L49.82 7.38Q49.82 6.32 50.64 5.73L50.64 5.73L50.64 5.73Q51.45 5.13 52.95 5.13L52.95 5.13L52.95 5.13Q54.27 5.13 55.07 5.65L55.07 5.65L55.07 5.65Q55.88 6.16 56.08 7.13L56.08 7.13L54.37 7.31L54.37 7.31Q54.29 6.86 53.97 6.63L53.97 6.63L53.97 6.63Q53.65 6.41 52.95 6.41L52.95 6.41L52.95 6.41Q52.27 6.41 51.93 6.59L51.93 6.59L51.93 6.59Q51.58 6.76 51.58 7.17L51.58 7.17L51.58 7.17Q51.58 7.49 51.85 7.68L51.85 7.68L51.85 7.68Q52.11 7.87 52.73 7.99L52.73 7.99L52.73 7.99Q53.60 8.17 54.27 8.36L54.27 8.36L54.27 8.36Q54.95 8.54 55.35 8.80L55.35 8.80L55.35 8.80Q55.76 9.06 56.00 9.47L56.00 9.47L56.00 9.47Q56.25 9.88 56.25 10.51ZM59.66 6.75L59.69 6.75L59.69 6.75Q60.08 5.91 60.67 5.52L60.67 5.52L60.67 5.52Q61.26 5.14 62.07 5.14L62.07 5.14L62.07 5.14Q63.25 5.14 63.88 5.87L63.88 5.87L63.88 5.87Q64.50 6.59 64.50 7.98L64.50 7.98L64.50 12.67L62.59 12.67L62.59 8.53L62.59 8.53Q62.59 6.58 61.27 6.58L61.27 6.58L61.27 6.58Q60.57 6.58 60.15 7.18L60.15 7.18L60.15 7.18Q59.72 7.78 59.72 8.72L59.72 8.72L59.72 12.67L57.80 12.67L57.80 2.53L59.72 2.53L59.72 5.30L59.72 5.30Q59.72 6.04 59.66 6.75L59.66 6.75ZM73.35 8.95L73.35 8.95L73.35 8.95Q73.35 10.78 72.61 11.80L72.61 11.80L72.61 11.80Q71.88 12.81 70.51 12.81L70.51 12.81L70.51 12.81Q69.73 12.81 69.15 12.47L69.15 12.47L69.15 12.47Q68.58 12.13 68.27 11.48L68.27 11.48L68.26 11.48L68.26 11.48Q68.26 11.72 68.23 12.14L68.23 12.14L68.23 12.14Q68.20 12.56 68.16 12.67L68.16 12.67L66.29 12.67L66.29 12.67Q66.35 12.04 66.35 10.99L66.35 10.99L66.35 2.53L68.27 2.53L68.27 5.36L68.24 6.56L68.27 6.56L68.27 6.56Q68.92 5.14 70.64 5.14L70.64 5.14L70.64 5.14Q71.95 5.14 72.65 6.14L72.65 6.14L72.65 6.14Q73.35 7.13 73.35 8.95ZM71.35 8.95L71.35 8.95L71.35 8.95Q71.35 7.69 70.98 7.08L70.98 7.08L70.98 7.08Q70.61 6.47 69.84 6.47L69.84 6.47L69.84 6.47Q69.06 6.47 68.65 7.13L68.65 7.13L68.65 7.13Q68.24 7.78 68.24 9.01L68.24 9.01L68.24 9.01Q68.24 10.19 68.64 10.84L68.64 10.84L68.64 10.84Q69.04 11.50 69.82 11.50L69.82 11.50L69.82 11.50Q71.35 11.50 71.35 8.95ZM81.93 8.97L81.93 8.97L81.93 8.97Q81.93 10.77 80.93 11.79L80.93 11.79L80.93 11.79Q79.93 12.81 78.17 12.81L78.17 12.81L78.17 12.81Q76.44 12.81 75.46 11.79L75.46 11.79L75.46 11.79Q74.47 10.76 74.47 8.97L74.47 8.97L74.47 8.97Q74.47 7.18 75.46 6.16L75.46 6.16L75.46 6.16Q76.44 5.14 78.21 5.14L78.21 5.14L78.21 5.14Q80.02 5.14 80.98 6.13L80.98 6.13L80.98 6.13Q81.93 7.12 81.93 8.97ZM79.92 8.97L79.92 8.97L79.92 8.97Q79.92 7.65 79.49 7.05L79.49 7.05L79.49 7.05Q79.06 6.46 78.24 6.46L78.24 6.46L78.24 6.46Q76.49 6.46 76.49 8.97L76.49 8.97L76.49 8.97Q76.49 10.21 76.91 10.85L76.91 10.85L76.91 10.85Q77.34 11.50 78.15 11.50L78.15 11.50L78.15 11.50Q79.92 11.50 79.92 8.97ZM85.16 12.81L85.16 12.81L85.16 12.81Q84.09 12.81 83.49 12.23L83.49 12.23L83.49 12.23Q82.89 11.64 82.89 10.58L82.89 10.58L82.89 10.58Q82.89 9.43 83.63 8.83L83.63 8.83L83.63 8.83Q84.38 8.23 85.80 8.22L85.80 8.22L87.40 8.19L87.40 7.81L87.40 7.81Q87.40 7.09 87.14 6.74L87.14 6.74L87.14 6.74Q86.89 6.38 86.32 6.38L86.32 6.38L86.32 6.38Q85.78 6.38 85.53 6.63L85.53 6.63L85.53 6.63Q85.29 6.87 85.22 7.43L85.22 7.43L83.22 7.33L83.22 7.33Q83.41 6.25 84.21 5.70L84.21 5.70L84.21 5.70Q85.01 5.14 86.40 5.14L86.40 5.14L86.40 5.14Q87.80 5.14 88.56 5.83L88.56 5.83L88.56 5.83Q89.32 6.52 89.32 7.79L89.32 7.79L89.32 10.49L89.32 10.49Q89.32 11.11 89.46 11.34L89.46 11.34L89.46 11.34Q89.60 11.58 89.93 11.58L89.93 11.58L89.93 11.58Q90.15 11.58 90.35 11.54L90.35 11.54L90.35 12.58L90.35 12.58Q90.18 12.62 90.04 12.65L90.04 12.65L90.04 12.65Q89.91 12.69 89.77 12.71L89.77 12.71L89.77 12.71Q89.63 12.73 89.48 12.74L89.48 12.74L89.48 12.74Q89.33 12.76 89.12 12.76L89.12 12.76L89.12 12.76Q88.40 12.76 88.05 12.40L88.05 12.40L88.05 12.40Q87.71 12.04 87.64 11.35L87.64 11.35L87.60 11.35L87.60 11.35Q86.79 12.81 85.16 12.81ZM87.40 9.63L87.40 9.25L86.41 9.26L86.41 9.26Q85.74 9.29 85.46 9.41L85.46 9.41L85.46 9.41Q85.18 9.53 85.04 9.78L85.04 9.78L85.04 9.78Q84.89 10.02 84.89 10.43L84.89 10.43L84.89 10.43Q84.89 10.96 85.13 11.21L85.13 11.21L85.13 11.21Q85.37 11.47 85.78 11.47L85.78 11.47L85.78 11.47Q86.23 11.47 86.60 11.22L86.60 11.22L86.60 11.22Q86.97 10.98 87.19 10.54L87.19 10.54L87.19 10.54Q87.40 10.11 87.40 9.63L87.40 9.63ZM93.16 12.67L91.24 12.67L91.24 7.01L91.24 7.01Q91.24 6.41 91.22 6.00L91.22 6.00L91.22 6.00Q91.21 5.59 91.18 5.28L91.18 5.28L93.02 5.28L93.02 5.28Q93.04 5.40 93.07 6.03L93.07 6.03L93.07 6.03Q93.11 6.65 93.11 6.86L93.11 6.86L93.13 6.86L93.13 6.86Q93.41 6.08 93.63 5.76L93.63 5.76L93.63 5.76Q93.85 5.44 94.15 5.29L94.15 5.29L94.15 5.29Q94.45 5.13 94.90 5.13L94.90 5.13L94.90 5.13Q95.27 5.13 95.50 5.24L95.50 5.24L95.50 6.84L95.50 6.84Q95.03 6.74 94.68 6.74L94.68 6.74L94.68 6.74Q93.96 6.74 93.56 7.32L93.56 7.32L93.56 7.32Q93.16 7.90 93.16 9.04L93.16 9.04L93.16 12.67ZM103.34 12.67L101.48 12.67L101.48 12.67Q101.45 12.57 101.41 12.16L101.41 12.16L101.41 12.16Q101.38 11.74 101.38 11.47L101.38 11.47L101.35 11.47L101.35 11.47Q100.73 12.81 98.98 12.81L98.98 12.81L98.98 12.81Q97.69 12.81 96.99 11.80L96.99 11.80L96.99 11.80Q96.28 10.79 96.28 8.98L96.28 8.98L96.28 8.98Q96.28 7.14 97.03 6.14L97.03 6.14L97.03 6.14Q97.77 5.14 99.13 5.14L99.13 5.14L99.13 5.14Q99.91 5.14 100.48 5.47L100.48 5.47L100.48 5.47Q101.06 5.80 101.36 6.45L101.36 6.45L101.38 6.45L101.36 5.23L101.36 2.53L103.28 2.53L103.28 11.06L103.28 11.06Q103.28 11.74 103.34 12.67L103.34 12.67ZM101.39 8.93L101.39 8.93L101.39 8.93Q101.39 7.74 100.99 7.09L100.99 7.09L100.99 7.09Q100.59 6.45 99.81 6.45L99.81 6.45L99.81 6.45Q99.04 6.45 98.66 7.07L98.66 7.07L98.66 7.07Q98.29 7.70 98.29 8.98L98.29 8.98L98.29 8.98Q98.29 11.50 99.80 11.50L99.80 11.50L99.80 11.50Q100.56 11.50 100.97 10.83L100.97 10.83L100.97 10.83Q101.39 10.17 101.39 8.93Z"></path></g><defs data-v-fde0c5aa=""><!----></defs><g data-v-fde0c5aa="" id="f5c74bd5-cfc2-412d-b55d-daedf058421f" stroke="none" fill="#ffffff" transform="matrix(0.6571956872940063,0,0,0.6571956872940063,24.884498991073063,117.14021519798492)"><path d="M68.292 39.974l1.618 1.176-9.41 12.94-1.618-1.176zM46.152 48.764l5.77 4.945-1.3 1.519-5.771-4.945zM38.162 49.881l1.586 1.22-6.95 9.036-1.585-1.22z"></path><path d="M72 42.5c-3.3 0-6-2.7-6-6s2.7-6 6-6 6 2.7 6 6-2.7 6-6 6zm0-10c-2.2 0-4 1.8-4 4s1.8 4 4 4 4-1.8 4-4-1.8-4-4-4zM56 63.5c-3.3 0-6-2.7-6-6s2.7-6 6-6 6 2.7 6 6-2.7 6-6 6zm0-10c-2.2 0-4 1.8-4 4s1.8 4 4 4 4-1.8 4-4-1.8-4-4-4zM42 52.5c-3.3 0-6-2.7-6-6s2.7-6 6-6 6 2.7 6 6-2.7 6-6 6zm0-10c-2.2 0-4 1.8-4 4s1.8 4 4 4 4-1.8 4-4-1.8-4-4-4zM29 69.5c-3.3 0-6-2.7-6-6s2.7-6 6-6 6 2.7 6 6-2.7 6-6 6zm0-10c-2.2 0-4 1.8-4 4s1.8 4 4 4 4-1.8 4-4-1.8-4-4-4z"></path></g><!----></svg>