<svg data-v-423bf9ae="" xmlns="http://www.w3.org/2000/svg" viewBox="0 0 559 91" class="iconLeft"><!----><!----><!----><g data-v-423bf9ae="" id="d9fb65f0-d311-4e6d-8f42-4a227278b344" fill="black" transform="matrix(5.444645881652832,0,0,5.444645881652832,67.88861083984375,7.377495288848877)"><path d="M0.98 1.82L0.98 1.82Q0.98 1.62 1.10 1.51L1.10 1.51L1.10 1.51Q1.22 1.40 1.40 1.40L1.40 1.40L1.40 1.40Q1.60 1.40 1.71 1.51L1.71 1.51L1.71 1.51Q1.82 1.62 1.82 1.82L1.82 1.82L1.82 10.02L1.82 10.02Q1.82 10.67 2.09 11.08L2.09 11.08L2.09 11.08Q2.37 11.49 2.80 11.49L2.80 11.49L3.15 11.49L3.15 11.49Q3.30 11.49 3.40 11.61L3.40 11.61L3.40 11.61Q3.50 11.72 3.50 11.91L3.50 11.91L3.50 11.91Q3.50 12.10 3.39 12.21L3.39 12.21L3.39 12.21Q3.28 12.33 3.08 12.33L3.08 12.33L2.80 12.33L2.80 12.33Q2.00 12.33 1.49 11.69L1.49 11.69L1.49 11.69Q0.98 11.05 0.98 10.02L0.98 10.02L0.98 1.82ZM8.22 4.61L8.22 4.61Q9.24 4.61 10.05 5.09L10.05 5.09L10.05 5.09Q10.85 5.57 11.30 6.43L11.30 6.43L11.30 6.43Q11.75 7.28 11.75 8.37L11.75 8.37L11.75 8.37Q11.75 8.55 11.63 8.66L11.63 8.66L11.63 8.66Q11.52 8.76 11.34 8.76L11.34 8.76L5.47 8.76L5.47 8.76Q5.52 9.59 5.91 10.24L5.91 10.24L5.91 10.24Q6.30 10.89 6.96 11.26L6.96 11.26L6.96 11.26Q7.62 11.62 8.43 11.62L8.43 11.62L8.43 11.62Q8.97 11.62 9.53 11.43L9.53 11.43L9.53 11.43Q10.08 11.24 10.40 10.93L10.40 10.93L10.40 10.93Q10.54 10.82 10.70 10.82L10.70 10.82L10.70 10.82Q10.85 10.82 10.95 10.91L10.95 10.91L10.95 10.91Q11.10 11.03 11.10 11.20L11.10 11.20L11.10 11.20Q11.10 11.34 10.98 11.47L10.98 11.47L10.98 11.47Q10.53 11.87 9.81 12.14L9.81 12.14L9.81 12.14Q9.09 12.40 8.43 12.40L8.43 12.40L8.43 12.40Q7.32 12.40 6.46 11.91L6.46 11.91L6.46 11.91Q5.60 11.41 5.11 10.52L5.11 10.52L5.11 10.52Q4.62 9.63 4.62 8.51L4.62 8.51L4.62 8.51Q4.62 7.38 5.08 6.49L5.08 6.49L5.08 6.49Q5.53 5.60 6.35 5.10L6.35 5.10L6.35 5.10Q7.17 4.61 8.22 4.61L8.22 4.61ZM8.22 5.39L8.22 5.39Q7.13 5.39 6.38 6.12L6.38 6.12L6.38 6.12Q5.63 6.85 5.49 8.04L5.49 8.04L10.93 8.04L10.93 8.04Q10.84 6.85 10.09 6.12L10.09 6.12L10.09 6.12Q9.35 5.39 8.22 5.39L8.22 5.39ZM17.07 4.59L17.07 4.59Q18.16 4.59 19.05 5.10L19.05 5.10L19.05 5.10Q19.95 5.61 20.46 6.51L20.46 6.51L20.46 6.51Q20.97 7.41 20.97 8.51L20.97 8.51L20.97 11.91L20.97 11.91Q20.97 12.10 20.86 12.21L20.86 12.21L20.86 12.21Q20.75 12.33 20.55 12.33L20.55 12.33L20.55 12.33Q20.37 12.33 20.25 12.21L20.25 12.21L20.25 12.21Q20.13 12.10 20.13 11.91L20.13 11.91L20.13 10.82L20.13 10.82Q19.67 11.56 18.87 11.99L18.87 11.99L18.87 11.99Q18.06 12.42 17.07 12.42L17.07 12.42L17.07 12.42Q15.96 12.42 15.06 11.91L15.06 11.91L15.06 11.91Q14.17 11.40 13.66 10.50L13.66 10.50L13.66 10.50Q13.15 9.60 13.15 8.51L13.15 8.51L13.15 8.51Q13.15 7.41 13.66 6.51L13.66 6.51L13.66 6.51Q14.17 5.61 15.06 5.10L15.06 5.10L15.06 5.10Q15.96 4.59 17.07 4.59L17.07 4.59ZM17.07 11.63L17.07 11.63Q17.93 11.63 18.63 11.23L18.63 11.23L18.63 11.23Q19.33 10.82 19.73 10.11L19.73 10.11L19.73 10.11Q20.13 9.39 20.13 8.51L20.13 8.51L20.13 8.51Q20.13 7.63 19.73 6.92L19.73 6.92L19.73 6.92Q19.33 6.20 18.63 5.79L18.63 5.79L18.63 5.79Q17.93 5.38 17.07 5.38L17.07 5.38L17.07 5.38Q16.20 5.38 15.50 5.79L15.50 5.79L15.50 5.79Q14.80 6.20 14.39 6.92L14.39 6.92L14.39 6.92Q13.99 7.63 13.99 8.51L13.99 8.51L13.99 8.51Q13.99 9.39 14.39 10.11L14.39 10.11L14.39 10.11Q14.80 10.82 15.50 11.23L15.50 11.23L15.50 11.23Q16.20 11.63 17.07 11.63L17.07 11.63ZM30.06 1.40L30.06 1.40Q30.25 1.40 30.37 1.51L30.37 1.51L30.37 1.51Q30.48 1.62 30.48 1.82L30.48 1.82L30.48 8.55L30.48 8.58L30.48 8.58Q30.46 9.66 29.95 10.54L29.95 10.54L29.95 10.54Q29.43 11.42 28.54 11.92L28.54 11.92L28.54 11.92Q27.65 12.42 26.57 12.42L26.57 12.42L26.57 12.42Q25.47 12.42 24.57 11.91L24.57 11.91L24.57 11.91Q23.67 11.40 23.16 10.50L23.16 10.50L23.16 10.50Q22.65 9.60 22.65 8.50L22.65 8.50L22.65 8.50Q22.65 7.41 23.16 6.51L23.16 6.51L23.16 6.51Q23.67 5.61 24.57 5.10L24.57 5.10L24.57 5.10Q25.47 4.59 26.57 4.59L26.57 4.59L26.57 4.59Q27.57 4.59 28.37 5.02L28.37 5.02L28.37 5.02Q29.18 5.45 29.64 6.19L29.64 6.19L29.64 1.82L29.64 1.82Q29.64 1.62 29.76 1.51L29.76 1.51L29.76 1.51Q29.88 1.40 30.06 1.40L30.06 1.40ZM26.57 11.63L26.57 11.63Q27.44 11.63 28.14 11.22L28.14 11.22L28.14 11.22Q28.84 10.81 29.24 10.09L29.24 10.09L29.24 10.09Q29.64 9.38 29.64 8.50L29.64 8.50L29.64 8.50Q29.64 7.62 29.24 6.90L29.24 6.90L29.24 6.90Q28.84 6.19 28.14 5.78L28.14 5.78L28.14 5.78Q27.44 5.38 26.57 5.38L26.57 5.38L26.57 5.38Q25.70 5.38 25.00 5.78L25.00 5.78L25.00 5.78Q24.30 6.19 23.90 6.90L23.90 6.90L23.90 6.90Q23.49 7.62 23.49 8.50L23.49 8.50L23.49 8.50Q23.49 9.38 23.90 10.09L23.90 10.09L23.90 10.09Q24.30 10.81 25.00 11.22L25.00 11.22L25.00 11.22Q25.70 11.63 26.57 11.63L26.57 11.63ZM36.18 4.61L36.18 4.61Q37.20 4.61 38.00 5.09L38.00 5.09L38.00 5.09Q38.81 5.57 39.26 6.43L39.26 6.43L39.26 6.43Q39.70 7.28 39.70 8.37L39.70 8.37L39.70 8.37Q39.70 8.55 39.59 8.66L39.59 8.66L39.59 8.66Q39.48 8.76 39.30 8.76L39.30 8.76L33.43 8.76L33.43 8.76Q33.47 9.59 33.87 10.24L33.87 10.24L33.87 10.24Q34.26 10.89 34.92 11.26L34.92 11.26L34.92 11.26Q35.57 11.62 36.39 11.62L36.39 11.62L36.39 11.62Q36.93 11.62 37.48 11.43L37.48 11.43L37.48 11.43Q38.04 11.24 38.36 10.93L38.36 10.93L38.36 10.93Q38.50 10.82 38.65 10.82L38.65 10.82L38.65 10.82Q38.81 10.82 38.91 10.91L38.91 10.91L38.91 10.91Q39.06 11.03 39.06 11.20L39.06 11.20L39.06 11.20Q39.06 11.34 38.93 11.47L38.93 11.47L38.93 11.47Q38.49 11.87 37.77 12.14L37.77 12.14L37.77 12.14Q37.04 12.40 36.39 12.40L36.39 12.40L36.39 12.40Q35.28 12.40 34.42 11.91L34.42 11.91L34.42 11.91Q33.56 11.41 33.07 10.52L33.07 10.52L33.07 10.52Q32.58 9.63 32.58 8.51L32.58 8.51L32.58 8.51Q32.58 7.38 33.03 6.49L33.03 6.49L33.03 6.49Q33.49 5.60 34.31 5.10L34.31 5.10L34.31 5.10Q35.13 4.61 36.18 4.61L36.18 4.61ZM36.18 5.39L36.18 5.39Q35.08 5.39 34.34 6.12L34.34 6.12L34.34 6.12Q33.59 6.85 33.45 8.04L33.45 8.04L38.89 8.04L38.89 8.04Q38.79 6.85 38.05 6.12L38.05 6.12L38.05 6.12Q37.31 5.39 36.18 5.39L36.18 5.39ZM44.77 4.59L44.77 4.59Q45.84 4.59 45.84 5.05L45.84 5.05L45.84 5.05Q45.84 5.12 45.82 5.17L45.82 5.17L45.82 5.17Q45.78 5.32 45.69 5.38L45.69 5.38L45.69 5.38Q45.60 5.45 45.44 5.45L45.44 5.45L45.44 5.45Q45.32 5.45 45.11 5.42L45.11 5.42L45.11 5.42Q44.91 5.39 44.77 5.39L44.77 5.39L44.77 5.39Q44.07 5.39 43.53 5.68L43.53 5.68L43.53 5.68Q42.98 5.98 42.67 6.50L42.67 6.50L42.67 6.50Q42.36 7.01 42.36 7.66L42.36 7.66L42.36 11.91L42.36 11.91Q42.36 12.10 42.25 12.21L42.25 12.21L42.25 12.21Q42.14 12.33 41.94 12.33L41.94 12.33L41.94 12.33Q41.76 12.33 41.64 12.21L41.64 12.21L41.64 12.21Q41.52 12.10 41.52 11.91L41.52 11.91L41.52 5.10L41.52 5.10Q41.52 4.90 41.64 4.79L41.64 4.79L41.64 4.79Q41.76 4.68 41.94 4.68L41.94 4.68L41.94 4.68Q42.14 4.68 42.25 4.79L42.25 4.79L42.25 4.79Q42.36 4.90 42.36 5.10L42.36 5.10L42.36 5.96L42.36 5.96Q42.77 5.32 43.40 4.96L43.40 4.96L43.40 4.96Q44.03 4.59 44.77 4.59L44.77 4.59ZM48.08 1.40L48.08 1.40Q47.88 1.40 47.77 1.51L47.77 1.51L47.77 1.51Q47.66 1.62 47.66 1.82L47.66 1.82L47.66 8.55L47.66 8.58L47.66 8.58Q47.67 9.66 48.19 10.54L48.19 10.54L48.19 10.54Q48.71 11.42 49.59 11.92L49.59 11.92L49.59 11.92Q50.48 12.42 51.56 12.42L51.56 12.42L51.56 12.42Q52.67 12.42 53.56 11.91L53.56 11.91L53.56 11.91Q54.46 11.40 54.97 10.50L54.97 10.50L54.97 10.50Q55.48 9.60 55.48 8.50L55.48 8.50L55.48 8.50Q55.48 7.41 54.97 6.51L54.97 6.51L54.97 6.51Q54.46 5.61 53.56 5.10L53.56 5.10L53.56 5.10Q52.67 4.59 51.56 4.59L51.56 4.59L51.56 4.59Q50.57 4.59 49.76 5.02L49.76 5.02L49.76 5.02Q48.96 5.45 48.50 6.19L48.50 6.19L48.50 1.82L48.50 1.82Q48.50 1.62 48.38 1.51L48.38 1.51L48.38 1.51Q48.26 1.40 48.08 1.40L48.08 1.40ZM51.56 11.63L51.56 11.63Q50.69 11.63 49.99 11.22L49.99 11.22L49.99 11.22Q49.29 10.81 48.89 10.09L48.89 10.09L48.89 10.09Q48.50 9.38 48.50 8.50L48.50 8.50L48.50 8.50Q48.50 7.62 48.89 6.90L48.89 6.90L48.89 6.90Q49.29 6.19 49.99 5.78L49.99 5.78L49.99 5.78Q50.69 5.38 51.56 5.38L51.56 5.38L51.56 5.38Q52.43 5.38 53.13 5.78L53.13 5.78L53.13 5.78Q53.83 6.19 54.24 6.90L54.24 6.90L54.24 6.90Q54.64 7.62 54.64 8.50L54.64 8.50L54.64 8.50Q54.64 9.38 54.24 10.09L54.24 10.09L54.24 10.09Q53.83 10.81 53.13 11.22L53.13 11.22L53.13 11.22Q52.43 11.63 51.56 11.63L51.56 11.63ZM61.08 4.59L61.08 4.59Q62.17 4.59 63.07 5.10L63.07 5.10L63.07 5.10Q63.97 5.61 64.48 6.51L64.48 6.51L64.48 6.51Q64.99 7.41 64.99 8.51L64.99 8.51L64.99 8.51Q64.99 9.60 64.48 10.50L64.48 10.50L64.48 10.50Q63.97 11.40 63.07 11.91L63.07 11.91L63.07 11.91Q62.17 12.42 61.08 12.42L61.08 12.42L61.08 12.42Q59.98 12.42 59.08 11.91L59.08 11.91L59.08 11.91Q58.18 11.40 57.67 10.50L57.67 10.50L57.67 10.50Q57.16 9.60 57.16 8.51L57.16 8.51L57.16 8.51Q57.16 7.41 57.67 6.51L57.67 6.51L57.67 6.51Q58.18 5.61 59.08 5.10L59.08 5.10L59.08 5.10Q59.98 4.59 61.08 4.59L61.08 4.59ZM61.08 5.38L61.08 5.38Q60.21 5.38 59.51 5.79L59.51 5.79L59.51 5.79Q58.81 6.20 58.41 6.92L58.41 6.92L58.41 6.92Q58.00 7.63 58.00 8.51L58.00 8.51L58.00 8.51Q58.00 9.39 58.41 10.11L58.41 10.11L58.41 10.11Q58.81 10.82 59.51 11.23L59.51 11.23L59.51 11.23Q60.21 11.63 61.08 11.63L61.08 11.63L61.08 11.63Q61.95 11.63 62.65 11.23L62.65 11.23L62.65 11.23Q63.35 10.82 63.75 10.11L63.75 10.11L63.75 10.11Q64.15 9.39 64.15 8.51L64.15 8.51L64.15 8.51Q64.15 7.63 63.75 6.92L63.75 6.92L63.75 6.92Q63.35 6.20 62.65 5.79L62.65 5.79L62.65 5.79Q61.95 5.38 61.08 5.38L61.08 5.38ZM70.59 4.59L70.59 4.59Q71.68 4.59 72.58 5.10L72.58 5.10L72.58 5.10Q73.47 5.61 73.98 6.51L73.98 6.51L73.98 6.51Q74.49 7.41 74.49 8.51L74.49 8.51L74.49 11.91L74.49 11.91Q74.49 12.10 74.38 12.21L74.38 12.21L74.38 12.21Q74.27 12.33 74.07 12.33L74.07 12.33L74.07 12.33Q73.89 12.33 73.77 12.21L73.77 12.21L73.77 12.21Q73.65 12.10 73.65 11.91L73.65 11.91L73.65 10.82L73.65 10.82Q73.19 11.56 72.39 11.99L72.39 11.99L72.39 11.99Q71.58 12.42 70.59 12.42L70.59 12.42L70.59 12.42Q69.48 12.42 68.59 11.91L68.59 11.91L68.59 11.91Q67.69 11.40 67.18 10.50L67.18 10.50L67.18 10.50Q66.67 9.60 66.67 8.51L66.67 8.51L66.67 8.51Q66.67 7.41 67.18 6.51L67.18 6.51L67.18 6.51Q67.69 5.61 68.59 5.10L68.59 5.10L68.59 5.10Q69.48 4.59 70.59 4.59L70.59 4.59ZM70.59 11.63L70.59 11.63Q71.46 11.63 72.16 11.23L72.16 11.23L72.16 11.23Q72.86 10.82 73.26 10.11L73.26 10.11L73.26 10.11Q73.65 9.39 73.65 8.51L73.65 8.51L73.65 8.51Q73.65 7.63 73.26 6.92L73.26 6.92L73.26 6.92Q72.86 6.20 72.16 5.79L72.16 5.79L72.16 5.79Q71.46 5.38 70.59 5.38L70.59 5.38L70.59 5.38Q69.72 5.38 69.02 5.79L69.02 5.79L69.02 5.79Q68.32 6.20 67.91 6.92L67.91 6.92L67.91 6.92Q67.51 7.63 67.51 8.51L67.51 8.51L67.51 8.51Q67.51 9.39 67.91 10.11L67.91 10.11L67.91 10.11Q68.32 10.82 69.02 11.23L69.02 11.23L69.02 11.23Q69.72 11.63 70.59 11.63L70.59 11.63ZM79.84 4.59L79.84 4.59Q80.91 4.59 80.91 5.05L80.91 5.05L80.91 5.05Q80.91 5.12 80.89 5.17L80.89 5.17L80.89 5.17Q80.85 5.32 80.76 5.38L80.76 5.38L80.76 5.38Q80.67 5.45 80.51 5.45L80.51 5.45L80.51 5.45Q80.39 5.45 80.19 5.42L80.19 5.42L80.19 5.42Q79.98 5.39 79.84 5.39L79.84 5.39L79.84 5.39Q79.14 5.39 78.60 5.68L78.60 5.68L78.60 5.68Q78.05 5.98 77.74 6.50L77.74 6.50L77.74 6.50Q77.43 7.01 77.43 7.66L77.43 7.66L77.43 11.91L77.43 11.91Q77.43 12.10 77.32 12.21L77.32 12.21L77.32 12.21Q77.21 12.33 77.01 12.33L77.01 12.33L77.01 12.33Q76.83 12.33 76.71 12.21L76.71 12.21L76.71 12.21Q76.59 12.10 76.59 11.91L76.59 11.91L76.59 5.10L76.59 5.10Q76.59 4.90 76.71 4.79L76.71 4.79L76.71 4.79Q76.83 4.68 77.01 4.68L77.01 4.68L77.01 4.68Q77.21 4.68 77.32 4.79L77.32 4.79L77.32 4.79Q77.43 4.90 77.43 5.10L77.43 5.10L77.43 5.96L77.43 5.96Q77.84 5.32 78.47 4.96L78.47 4.96L78.47 4.96Q79.10 4.59 79.84 4.59L79.84 4.59ZM89.71 1.40L89.71 1.40Q89.91 1.40 90.02 1.51L90.02 1.51L90.02 1.51Q90.13 1.62 90.13 1.82L90.13 1.82L90.13 8.55L90.13 8.58L90.13 8.58Q90.12 9.66 89.60 10.54L89.60 10.54L89.60 10.54Q89.08 11.42 88.19 11.92L88.19 11.92L88.19 11.92Q87.30 12.42 86.23 12.42L86.23 12.42L86.23 12.42Q85.12 12.42 84.22 11.91L84.22 11.91L84.22 11.91Q83.33 11.40 82.82 10.50L82.82 10.50L82.82 10.50Q82.31 9.60 82.31 8.50L82.31 8.50L82.31 8.50Q82.31 7.41 82.82 6.51L82.82 6.51L82.82 6.51Q83.33 5.61 84.22 5.10L84.22 5.10L84.22 5.10Q85.12 4.59 86.23 4.59L86.23 4.59L86.23 4.59Q87.22 4.59 88.03 5.02L88.03 5.02L88.03 5.02Q88.83 5.45 89.29 6.19L89.29 6.19L89.29 1.82L89.29 1.82Q89.29 1.62 89.41 1.51L89.41 1.51L89.41 1.51Q89.53 1.40 89.71 1.40L89.71 1.40ZM86.23 11.63L86.23 11.63Q87.09 11.63 87.79 11.22L87.79 11.22L87.79 11.22Q88.49 10.81 88.89 10.09L88.89 10.09L88.89 10.09Q89.29 9.38 89.29 8.50L89.29 8.50L89.29 8.50Q89.29 7.62 88.89 6.90L88.89 6.90L88.89 6.90Q88.49 6.19 87.79 5.78L87.79 5.78L87.79 5.78Q87.09 5.38 86.23 5.38L86.23 5.38L86.23 5.38Q85.36 5.38 84.66 5.78L84.66 5.78L84.66 5.78Q83.96 6.19 83.55 6.90L83.55 6.90L83.55 6.90Q83.15 7.62 83.15 8.50L83.15 8.50L83.15 8.50Q83.15 9.38 83.55 10.09L83.55 10.09L83.55 10.09Q83.96 10.81 84.66 11.22L84.66 11.22L84.66 11.22Q85.36 11.63 86.23 11.63L86.23 11.63Z"></path></g><!----><g data-v-423bf9ae="" id="b576fd3f-17e5-450a-a5a6-22db71389409" transform="matrix(1.337295651435852,0,0,1.337295651435852,-9.175629615783691,-6.855126857757568)" stroke="none" fill="black"><path d="M47.4 23.2c0-4.4-3.6-7.9-7.9-7.9s-7.9 3.6-7.9 7.9c0 3.1 1.8 5.7 4.3 7.1-1.2 5.7-5.9 8.3-12.5 11.3-1.6.7-3.2 1.5-4.7 2.3V20.6c2.7-1.2 4.7-4 4.7-7.2 0-4.4-3.6-7.9-7.9-7.9-4.4 0-7.9 3.6-7.9 7.9 0 3.2 1.9 6 4.7 7.2V56v-6 7.7c-2.7 1.2-4.7 4-4.7 7.2 0 4.4 3.6 7.9 7.9 7.9 4.4 0 7.9-3.6 7.9-7.9 0-3.2-1.9-6-4.7-7.2V53c0-2 2.8-3.4 7.4-5.5 6.4-2.9 14.8-6.8 16.4-16.9 2.9-1.2 4.9-4 4.9-7.4zM15.5 9.5c2.2 0 3.9 1.8 3.9 3.9 0 2.2-1.8 3.9-3.9 3.9-2.2 0-3.9-1.8-3.9-3.9 0-2.1 1.7-3.9 3.9-3.9zm0 59.3c-2.2 0-3.9-1.8-3.9-3.9 0-2.2 1.8-3.9 3.9-3.9 2.2 0 3.9 1.8 3.9 3.9 0 2.2-1.8 3.9-3.9 3.9zm24-41.6c-2.2 0-3.9-1.8-3.9-3.9 0-2.2 1.8-3.9 3.9-3.9s3.9 1.8 3.9 3.9c0 2.1-1.7 3.9-3.9 3.9z"></path></g><!----></svg>