<svg data-v-423bf9ae="" xmlns="http://www.w3.org/2000/svg" viewBox="0 0 376.08657101872603 60" class="font"><!----><!----><!----><g data-v-423bf9ae="" id="85bb107b-8ca7-48ce-864e-e00c7f018aad" fill="black" transform="matrix(5.644402503967285,0,0,5.644402503967285,-5.983068466186523,-8.46660327911377)"><path d="M1.06 12.09L1.06 9.18L1.06 7.98L1.06 7.98Q1.18 6.45 1.70 5.74L1.70 5.74L1.70 5.74Q2.13 5.09 2.83 4.71L2.83 4.71L2.83 4.71Q3.29 4.42 4.14 4.40L4.14 4.40L4.14 4.40Q4.68 4.40 5.24 4.60L5.24 4.60L5.24 4.60Q5.80 4.81 6.11 5.15L6.11 5.15L6.11 5.15Q6.42 5.49 6.73 6.17L6.73 6.17L6.73 6.17Q6.90 5.74 7.45 5.15L7.45 5.15L7.45 5.15Q7.72 4.92 8.14 4.70L8.14 4.70L8.14 4.70Q8.43 4.52 9.47 4.40L9.47 4.40L9.47 4.40Q10.25 4.40 10.97 4.79L10.97 4.79L10.97 4.79Q11.69 5.17 11.98 5.88L11.98 5.88L11.98 5.88Q12.27 6.59 12.27 7.99L12.27 7.99L12.27 12.09L11.29 12.09L11.29 7.99L11.29 7.99Q11.29 6.79 11.12 6.34L11.12 6.34L11.12 6.34Q10.94 5.89 10.53 5.61L10.53 5.61L10.53 5.61Q10.11 5.33 9.52 5.33L9.52 5.33L9.52 5.33Q8.42 5.41 7.63 6.41L7.63 6.41L7.63 6.41Q7.32 6.83 7.16 8.29L7.16 8.29L7.16 12.09L6.20 12.09L6.20 8.24L6.20 8.24Q6.20 6.89 5.90 6.40L5.90 6.40L5.90 6.40Q5.60 5.91 5.18 5.62L5.18 5.62L5.18 5.62Q4.76 5.33 4.14 5.33L4.14 5.33L4.14 5.33Q3.47 5.33 2.99 5.67L2.99 5.67L2.99 5.67Q2.51 6.02 2.24 6.70L2.24 6.70L2.24 6.70Q1.96 7.38 2.02 8.91L2.02 8.91L2.02 12.09L1.06 12.09ZM20.60 9.42L20.60 9.42L21.41 9.85L21.41 9.85Q21.02 10.64 20.49 11.12L20.49 11.12L20.49 11.12Q19.97 11.59 19.31 11.84L19.31 11.84L19.31 11.84Q18.66 12.09 17.83 12.09L17.83 12.09L17.83 12.09Q16.00 12.09 14.96 10.89L14.96 10.89L14.96 10.89Q13.93 9.69 13.93 8.18L13.93 8.18L13.93 8.18Q13.93 6.75 14.81 5.64L14.81 5.64L14.81 5.64Q15.91 4.22 17.78 4.22L17.78 4.22L17.78 4.22Q19.69 4.22 20.84 5.67L20.84 5.67L20.84 5.67Q21.65 6.70 21.66 8.23L21.66 8.23L14.92 8.23L14.92 8.23Q14.95 9.54 15.76 10.38L15.76 10.38L15.76 10.38Q16.56 11.22 17.75 11.22L17.75 11.22L17.75 11.22Q18.32 11.22 18.86 11.02L18.86 11.02L18.86 11.02Q19.40 10.81 19.78 10.49L19.78 10.49L19.78 10.49Q20.16 10.16 20.60 9.42ZM15.03 7.40L20.60 7.40L20.60 7.40Q20.41 6.63 20.04 6.17L20.04 6.17L20.04 6.17Q19.67 5.71 19.07 5.42L19.07 5.42L19.07 5.42Q18.46 5.14 17.79 5.14L17.79 5.14L17.79 5.14Q16.69 5.14 15.89 5.85L15.89 5.85L15.89 5.85Q15.32 6.37 15.03 7.40L15.03 7.40ZM30.39 10.63L30.39 10.63L30.39 10.63Q31.00 9.60 31.12 8.61L31.12 8.61L31.12 8.61Q31.12 1.50 31.12 1.51L31.12 1.51L30.17 1.51L30.17 5.69L30.17 5.69Q29.56 4.95 28.81 4.58L28.81 4.58L28.81 4.58Q28.05 4.22 27.16 4.22L27.16 4.22L27.16 4.22Q25.57 4.22 24.45 5.37L24.45 5.37L24.45 5.37Q23.32 6.53 23.32 8.18L23.32 8.18L23.32 8.18Q23.32 9.80 24.45 10.94L24.45 10.94L24.45 10.94Q25.59 12.09 27.19 12.09L27.19 12.09L27.19 12.09Q28.10 12.09 28.91 11.74L28.91 11.74L28.91 11.74Q29.71 11.39 30.39 10.63ZM27.27 11.17L27.27 11.17L27.27 11.17Q26.46 11.17 25.77 10.77L25.77 10.77L25.77 10.77Q25.09 10.37 24.69 9.66L24.69 9.66L24.69 9.66Q24.29 8.95 24.29 8.14L24.29 8.14L24.29 8.14Q24.29 7.35 24.69 6.62L24.69 6.62L24.69 6.62Q25.10 5.89 25.79 5.49L25.79 5.49L25.79 5.49Q26.48 5.09 27.25 5.09L27.25 5.09L27.25 5.09Q28.05 5.09 28.76 5.49L28.76 5.49L28.76 5.49Q29.47 5.89 29.85 6.58L29.85 6.58L29.85 6.58Q30.24 7.27 30.24 8.11L30.24 8.11L30.24 8.11Q30.24 9.42 29.37 10.29L29.37 10.29L29.37 10.29Q28.51 11.17 27.27 11.17ZM33.43 1.50L33.43 1.50L33.43 1.50Q33.76 1.50 34.00 1.74L34.00 1.74L34.00 1.74Q34.23 1.97 34.23 2.30L34.23 2.30L34.23 2.30Q34.23 2.63 34.00 2.86L34.00 2.86L34.00 2.86Q33.76 3.10 33.43 3.10L33.43 3.10L33.43 3.10Q33.11 3.10 32.87 2.86L32.87 2.86L32.87 2.86Q32.64 2.63 32.64 2.30L32.64 2.30L32.64 2.30Q32.64 1.97 32.87 1.74L32.87 1.74L32.87 1.74Q33.11 1.50 33.43 1.50ZM32.96 12.09L32.96 4.59L33.92 4.59L33.92 12.09L32.96 12.09ZM36.52 10.63L36.52 10.63L36.52 10.63Q35.90 9.60 35.78 8.61L35.78 8.61L35.78 8.61Q35.78 1.50 35.78 1.51L35.78 1.51L36.74 1.51L36.74 5.69L36.74 5.69Q37.34 4.95 38.10 4.58L38.10 4.58L38.10 4.58Q38.85 4.22 39.74 4.22L39.74 4.22L39.74 4.22Q41.33 4.22 42.46 5.37L42.46 5.37L42.46 5.37Q43.59 6.53 43.59 8.18L43.59 8.18L43.59 8.18Q43.59 9.80 42.45 10.94L42.45 10.94L42.45 10.94Q41.32 12.09 39.72 12.09L39.72 12.09L39.72 12.09Q38.80 12.09 38.00 11.74L38.00 11.74L38.00 11.74Q37.19 11.39 36.52 10.63ZM39.63 11.17L39.63 11.17L39.63 11.17Q40.45 11.17 41.13 10.77L41.13 10.77L41.13 10.77Q41.81 10.37 42.21 9.66L42.21 9.66L42.21 9.66Q42.62 8.95 42.62 8.14L42.62 8.14L42.62 8.14Q42.62 7.35 42.21 6.62L42.21 6.62L42.21 6.62Q41.80 5.89 41.11 5.49L41.11 5.49L41.11 5.49Q40.43 5.09 39.65 5.09L39.65 5.09L39.65 5.09Q38.86 5.09 38.14 5.49L38.14 5.49L38.14 5.49Q37.43 5.89 37.05 6.58L37.05 6.58L37.05 6.58Q36.67 7.27 36.67 8.11L36.67 8.11L36.67 8.11Q36.67 9.42 37.53 10.29L37.53 10.29L37.53 10.29Q38.39 11.17 39.63 11.17ZM49.06 4.22L49.06 4.22L49.06 4.22Q50.79 4.22 51.93 5.47L51.93 5.47L51.93 5.47Q52.99 6.61 52.99 8.18L52.99 8.18L52.99 8.18Q53.00 12.07 52.99 12.13L52.99 12.13L52.99 12.13Q52.33 12.13 51.97 12.13L51.97 12.13L51.97 12.13Q51.97 12.08 51.97 10.42L51.97 10.42L51.97 10.42Q51.17 11.92 49.06 12.09L49.06 12.09L49.06 12.09Q47.34 12.09 46.25 10.92L46.25 10.92L46.25 10.92Q45.16 9.75 45.16 8.18L45.16 8.18L45.16 8.18Q45.16 6.62 46.19 5.48L46.19 5.48L46.19 5.48Q47.33 4.22 49.06 4.22ZM49.06 5.16L49.06 5.16L49.06 5.16Q47.87 5.16 47.00 6.05L47.00 6.05L47.00 6.05Q46.14 6.94 46.14 8.20L46.14 8.20L46.14 8.20Q46.14 9.01 46.58 9.76L46.58 9.76L46.58 9.76Q47.02 10.51 48.08 11.03L48.08 11.03L48.08 11.03Q50.72 11.62 51.83 8.63L51.83 8.63L51.83 8.63Q51.89 7.68 51.63 6.80L51.63 6.80L51.63 6.80Q51.43 6.41 51.10 6.05L51.10 6.05L51.10 6.05Q50.26 5.16 49.06 5.16ZM58.63 5.23L58.63 5.23L58.01 5.87L58.01 5.87Q57.23 5.12 56.50 5.12L56.50 5.12L56.50 5.12Q56.03 5.12 55.69 5.43L55.69 5.43L55.69 5.43Q55.36 5.74 55.36 6.16L55.36 6.16L55.36 6.16Q55.36 6.51 55.64 6.84L55.64 6.84L55.64 6.84Q55.91 7.19 56.79 7.64L56.79 7.64L56.79 7.64Q57.87 8.20 58.26 8.72L58.26 8.72L58.26 8.72Q58.63 9.24 58.63 9.90L58.63 9.90L58.63 9.90Q58.63 10.81 57.99 11.45L57.99 11.45L57.99 11.45Q57.34 12.09 56.37 12.09L56.37 12.09L56.37 12.09Q55.72 12.09 55.13 11.82L55.13 11.82L55.13 11.82Q54.54 11.54 54.15 11.04L54.15 11.04L54.76 10.35L54.76 10.35Q55.50 11.18 56.33 11.18L56.33 11.18L56.33 11.18Q56.90 11.18 57.31 10.81L57.31 10.81L57.31 10.81Q57.72 10.44 57.72 9.94L57.72 9.94L57.72 9.94Q57.72 9.52 57.45 9.20L57.45 9.20L57.45 9.20Q57.18 8.88 56.24 8.39L56.24 8.39L56.24 8.39Q55.22 7.88 54.86 7.36L54.86 7.36L54.86 7.36Q54.49 6.86 54.49 6.20L54.49 6.20L54.49 6.20Q54.49 5.35 55.07 4.78L55.07 4.78L55.07 4.78Q55.66 4.22 56.54 4.22L56.54 4.22L56.54 4.22Q57.57 4.22 58.63 5.23ZM66.64 9.42L66.64 9.42L67.44 9.85L67.44 9.85Q67.05 10.64 66.53 11.12L66.53 11.12L66.53 11.12Q66.00 11.59 65.34 11.84L65.34 11.84L65.34 11.84Q64.69 12.09 63.86 12.09L63.86 12.09L63.86 12.09Q62.03 12.09 61.00 10.89L61.00 10.89L61.00 10.89Q59.96 9.69 59.96 8.18L59.96 8.18L59.96 8.18Q59.96 6.75 60.84 5.64L60.84 5.64L60.84 5.64Q61.95 4.22 63.81 4.22L63.81 4.22L63.81 4.22Q65.72 4.22 66.87 5.67L66.87 5.67L66.87 5.67Q67.68 6.70 67.69 8.23L67.69 8.23L60.96 8.23L60.96 8.23Q60.98 9.54 61.79 10.38L61.79 10.38L61.79 10.38Q62.60 11.22 63.78 11.22L63.78 11.22L63.78 11.22Q64.35 11.22 64.89 11.02L64.89 11.02L64.89 11.02Q65.43 10.81 65.81 10.49L65.81 10.49L65.81 10.49Q66.19 10.16 66.64 9.42ZM61.06 7.40L66.64 7.40L66.64 7.40Q66.45 6.63 66.08 6.17L66.08 6.17L66.08 6.17Q65.71 5.71 65.10 5.42L65.10 5.42L65.10 5.42Q64.49 5.14 63.82 5.14L63.82 5.14L63.82 5.14Q62.72 5.14 61.93 5.85L61.93 5.85L61.93 5.85Q61.35 6.37 61.06 7.40L61.06 7.40Z"></path></g><!----><!----></svg>