<svg data-v-fde0c5aa="" xmlns="http://www.w3.org/2000/svg" viewBox="0 0 300 300" class="iconAbove"><!----><defs data-v-fde0c5aa=""><!----></defs><rect data-v-fde0c5aa="" fill="#353922" x="0" y="0" width="300px" height="300px" class="logo-background-square"></rect><defs data-v-fde0c5aa=""><!----></defs><g data-v-fde0c5aa="" id="f0ab2ae1-8b84-443d-8ffc-7d2a42c3cc7a" fill="#FFFFFF" transform="matrix(3.9021458625793457,0,0,3.9021458625793457,15.863725575175923,173.88668681057212)"><path d="M1.06 12.09L1.06 9.18L1.06 7.98L1.06 7.98Q1.18 6.45 1.70 5.74L1.70 5.74L1.70 5.74Q2.13 5.09 2.83 4.71L2.83 4.71L2.83 4.71Q3.29 4.42 4.14 4.40L4.14 4.40L4.14 4.40Q4.68 4.40 5.24 4.60L5.24 4.60L5.24 4.60Q5.80 4.81 6.11 5.15L6.11 5.15L6.11 5.15Q6.42 5.49 6.73 6.17L6.73 6.17L6.73 6.17Q6.90 5.74 7.45 5.15L7.45 5.15L7.45 5.15Q7.72 4.92 8.14 4.70L8.14 4.70L8.14 4.70Q8.43 4.52 9.47 4.40L9.47 4.40L9.47 4.40Q10.25 4.40 10.97 4.79L10.97 4.79L10.97 4.79Q11.69 5.17 11.98 5.88L11.98 5.88L11.98 5.88Q12.27 6.59 12.27 7.99L12.27 7.99L12.27 12.09L11.29 12.09L11.29 7.99L11.29 7.99Q11.29 6.79 11.12 6.34L11.12 6.34L11.12 6.34Q10.94 5.89 10.53 5.61L10.53 5.61L10.53 5.61Q10.11 5.33 9.52 5.33L9.52 5.33L9.52 5.33Q8.42 5.41 7.63 6.41L7.63 6.41L7.63 6.41Q7.32 6.83 7.16 8.29L7.16 8.29L7.16 12.09L6.20 12.09L6.20 8.24L6.20 8.24Q6.20 6.89 5.90 6.40L5.90 6.40L5.90 6.40Q5.60 5.91 5.18 5.62L5.18 5.62L5.18 5.62Q4.76 5.33 4.14 5.33L4.14 5.33L4.14 5.33Q3.47 5.33 2.99 5.67L2.99 5.67L2.99 5.67Q2.51 6.02 2.24 6.70L2.24 6.70L2.24 6.70Q1.96 7.38 2.02 8.91L2.02 8.91L2.02 12.09L1.06 12.09ZM20.60 9.42L20.60 9.42L21.41 9.85L21.41 9.85Q21.02 10.64 20.49 11.12L20.49 11.12L20.49 11.12Q19.97 11.59 19.31 11.84L19.31 11.84L19.31 11.84Q18.66 12.09 17.83 12.09L17.83 12.09L17.83 12.09Q16.00 12.09 14.96 10.89L14.96 10.89L14.96 10.89Q13.93 9.69 13.93 8.18L13.93 8.18L13.93 8.18Q13.93 6.75 14.81 5.64L14.81 5.64L14.81 5.64Q15.91 4.22 17.78 4.22L17.78 4.22L17.78 4.22Q19.69 4.22 20.84 5.67L20.84 5.67L20.84 5.67Q21.65 6.70 21.66 8.23L21.66 8.23L14.92 8.23L14.92 8.23Q14.95 9.54 15.76 10.38L15.76 10.38L15.76 10.38Q16.56 11.22 17.75 11.22L17.75 11.22L17.75 11.22Q18.32 11.22 18.86 11.02L18.86 11.02L18.86 11.02Q19.40 10.81 19.78 10.49L19.78 10.49L19.78 10.49Q20.16 10.16 20.60 9.42ZM15.03 7.40L20.60 7.40L20.60 7.40Q20.41 6.63 20.04 6.17L20.04 6.17L20.04 6.17Q19.67 5.71 19.07 5.42L19.07 5.42L19.07 5.42Q18.46 5.14 17.79 5.14L17.79 5.14L17.79 5.14Q16.69 5.14 15.89 5.85L15.89 5.85L15.89 5.85Q15.32 6.37 15.03 7.40L15.03 7.40ZM30.39 10.63L30.39 10.63L30.39 10.63Q31.00 9.60 31.12 8.61L31.12 8.61L31.12 8.61Q31.12 1.50 31.12 1.51L31.12 1.51L30.17 1.51L30.17 5.69L30.17 5.69Q29.56 4.95 28.81 4.58L28.81 4.58L28.81 4.58Q28.05 4.22 27.16 4.22L27.16 4.22L27.16 4.22Q25.57 4.22 24.45 5.37L24.45 5.37L24.45 5.37Q23.32 6.53 23.32 8.18L23.32 8.18L23.32 8.18Q23.32 9.80 24.45 10.94L24.45 10.94L24.45 10.94Q25.59 12.09 27.19 12.09L27.19 12.09L27.19 12.09Q28.10 12.09 28.91 11.74L28.91 11.74L28.91 11.74Q29.71 11.39 30.39 10.63ZM27.27 11.17L27.27 11.17L27.27 11.17Q26.46 11.17 25.77 10.77L25.77 10.77L25.77 10.77Q25.09 10.37 24.69 9.66L24.69 9.66L24.69 9.66Q24.29 8.95 24.29 8.14L24.29 8.14L24.29 8.14Q24.29 7.35 24.69 6.62L24.69 6.62L24.69 6.62Q25.10 5.89 25.79 5.49L25.79 5.49L25.79 5.49Q26.48 5.09 27.25 5.09L27.25 5.09L27.25 5.09Q28.05 5.09 28.76 5.49L28.76 5.49L28.76 5.49Q29.47 5.89 29.85 6.58L29.85 6.58L29.85 6.58Q30.24 7.27 30.24 8.11L30.24 8.11L30.24 8.11Q30.24 9.42 29.37 10.29L29.37 10.29L29.37 10.29Q28.51 11.17 27.27 11.17ZM33.43 1.50L33.43 1.50L33.43 1.50Q33.76 1.50 34.00 1.74L34.00 1.74L34.00 1.74Q34.23 1.97 34.23 2.30L34.23 2.30L34.23 2.30Q34.23 2.63 34.00 2.86L34.00 2.86L34.00 2.86Q33.76 3.10 33.43 3.10L33.43 3.10L33.43 3.10Q33.11 3.10 32.87 2.86L32.87 2.86L32.87 2.86Q32.64 2.63 32.64 2.30L32.64 2.30L32.64 2.30Q32.64 1.97 32.87 1.74L32.87 1.74L32.87 1.74Q33.11 1.50 33.43 1.50ZM32.96 12.09L32.96 4.59L33.92 4.59L33.92 12.09L32.96 12.09ZM36.52 10.63L36.52 10.63L36.52 10.63Q35.90 9.60 35.78 8.61L35.78 8.61L35.78 8.61Q35.78 1.50 35.78 1.51L35.78 1.51L36.74 1.51L36.74 5.69L36.74 5.69Q37.34 4.95 38.10 4.58L38.10 4.58L38.10 4.58Q38.85 4.22 39.74 4.22L39.74 4.22L39.74 4.22Q41.33 4.22 42.46 5.37L42.46 5.37L42.46 5.37Q43.59 6.53 43.59 8.18L43.59 8.18L43.59 8.18Q43.59 9.80 42.45 10.94L42.45 10.94L42.45 10.94Q41.32 12.09 39.72 12.09L39.72 12.09L39.72 12.09Q38.80 12.09 38.00 11.74L38.00 11.74L38.00 11.74Q37.19 11.39 36.52 10.63ZM39.63 11.17L39.63 11.17L39.63 11.17Q40.45 11.17 41.13 10.77L41.13 10.77L41.13 10.77Q41.81 10.37 42.21 9.66L42.21 9.66L42.21 9.66Q42.62 8.95 42.62 8.14L42.62 8.14L42.62 8.14Q42.62 7.35 42.21 6.62L42.21 6.62L42.21 6.62Q41.80 5.89 41.11 5.49L41.11 5.49L41.11 5.49Q40.43 5.09 39.65 5.09L39.65 5.09L39.65 5.09Q38.86 5.09 38.14 5.49L38.14 5.49L38.14 5.49Q37.43 5.89 37.05 6.58L37.05 6.58L37.05 6.58Q36.67 7.27 36.67 8.11L36.67 8.11L36.67 8.11Q36.67 9.42 37.53 10.29L37.53 10.29L37.53 10.29Q38.39 11.17 39.63 11.17ZM49.06 4.22L49.06 4.22L49.06 4.22Q50.79 4.22 51.93 5.47L51.93 5.47L51.93 5.47Q52.99 6.61 52.99 8.18L52.99 8.18L52.99 8.18Q53.00 12.07 52.99 12.13L52.99 12.13L52.99 12.13Q52.33 12.13 51.97 12.13L51.97 12.13L51.97 12.13Q51.97 12.08 51.97 10.42L51.97 10.42L51.97 10.42Q51.17 11.92 49.06 12.09L49.06 12.09L49.06 12.09Q47.34 12.09 46.25 10.92L46.25 10.92L46.25 10.92Q45.16 9.75 45.16 8.18L45.16 8.18L45.16 8.18Q45.16 6.62 46.19 5.48L46.19 5.48L46.19 5.48Q47.33 4.22 49.06 4.22ZM49.06 5.16L49.06 5.16L49.06 5.16Q47.87 5.16 47.00 6.05L47.00 6.05L47.00 6.05Q46.14 6.94 46.14 8.20L46.14 8.20L46.14 8.20Q46.14 9.01 46.58 9.76L46.58 9.76L46.58 9.76Q47.02 10.51 48.08 11.03L48.08 11.03L48.08 11.03Q50.72 11.62 51.83 8.63L51.83 8.63L51.83 8.63Q51.89 7.68 51.63 6.80L51.63 6.80L51.63 6.80Q51.43 6.41 51.10 6.05L51.10 6.05L51.10 6.05Q50.26 5.16 49.06 5.16ZM58.63 5.23L58.63 5.23L58.01 5.87L58.01 5.87Q57.23 5.12 56.50 5.12L56.50 5.12L56.50 5.12Q56.03 5.12 55.69 5.43L55.69 5.43L55.69 5.43Q55.36 5.74 55.36 6.16L55.36 6.16L55.36 6.16Q55.36 6.51 55.64 6.84L55.64 6.84L55.64 6.84Q55.91 7.19 56.79 7.64L56.79 7.64L56.79 7.64Q57.87 8.20 58.26 8.72L58.26 8.72L58.26 8.72Q58.63 9.24 58.63 9.90L58.63 9.90L58.63 9.90Q58.63 10.81 57.99 11.45L57.99 11.45L57.99 11.45Q57.34 12.09 56.37 12.09L56.37 12.09L56.37 12.09Q55.72 12.09 55.13 11.82L55.13 11.82L55.13 11.82Q54.54 11.54 54.15 11.04L54.15 11.04L54.76 10.35L54.76 10.35Q55.50 11.18 56.33 11.18L56.33 11.18L56.33 11.18Q56.90 11.18 57.31 10.81L57.31 10.81L57.31 10.81Q57.72 10.44 57.72 9.94L57.72 9.94L57.72 9.94Q57.72 9.52 57.45 9.20L57.45 9.20L57.45 9.20Q57.18 8.88 56.24 8.39L56.24 8.39L56.24 8.39Q55.22 7.88 54.86 7.36L54.86 7.36L54.86 7.36Q54.49 6.86 54.49 6.20L54.49 6.20L54.49 6.20Q54.49 5.35 55.07 4.78L55.07 4.78L55.07 4.78Q55.66 4.22 56.54 4.22L56.54 4.22L56.54 4.22Q57.57 4.22 58.63 5.23ZM66.64 9.42L66.64 9.42L67.44 9.85L67.44 9.85Q67.05 10.64 66.53 11.12L66.53 11.12L66.53 11.12Q66.00 11.59 65.34 11.84L65.34 11.84L65.34 11.84Q64.69 12.09 63.86 12.09L63.86 12.09L63.86 12.09Q62.03 12.09 61.00 10.89L61.00 10.89L61.00 10.89Q59.96 9.69 59.96 8.18L59.96 8.18L59.96 8.18Q59.96 6.75 60.84 5.64L60.84 5.64L60.84 5.64Q61.95 4.22 63.81 4.22L63.81 4.22L63.81 4.22Q65.72 4.22 66.87 5.67L66.87 5.67L66.87 5.67Q67.68 6.70 67.69 8.23L67.69 8.23L60.96 8.23L60.96 8.23Q60.98 9.54 61.79 10.38L61.79 10.38L61.79 10.38Q62.60 11.22 63.78 11.22L63.78 11.22L63.78 11.22Q64.35 11.22 64.89 11.02L64.89 11.02L64.89 11.02Q65.43 10.81 65.81 10.49L65.81 10.49L65.81 10.49Q66.19 10.16 66.64 9.42ZM61.06 7.40L66.64 7.40L66.64 7.40Q66.45 6.63 66.08 6.17L66.08 6.17L66.08 6.17Q65.71 5.71 65.10 5.42L65.10 5.42L65.10 5.42Q64.49 5.14 63.82 5.14L63.82 5.14L63.82 5.14Q62.72 5.14 61.93 5.85L61.93 5.85L61.93 5.85Q61.35 6.37 61.06 7.40L61.06 7.40Z"></path></g><defs data-v-fde0c5aa=""><!----></defs><g data-v-fde0c5aa="" id="a6767380-527d-4a5f-a3f4-35194d95d6f5" stroke="#98D82C" fill="none" transform="matrix(0.6145157217979431,0,0,0.6145157217979431,178.26772325933905,100.90284907235059)"><path d="M-192 0H-7v99h-185zM0-36h100v30H0z"></path><text transform="translate(66 -19.5)" font-family="'Helvetica'" font-size="2.4">http://thenounproject.com</text><text transform="translate(7.166 -24.5)"><tspan x="0" y="0" font-family="'Helvetica-Bold'" font-size="6.158">The Noun Project</tspan><tspan x="1.12" y="4.8" font-family="'Helvetica-Bold'" font-size="4">Icon Template</tspan></text><text transform="translate(-178.5 10.5)" font-family="'Helvetica-Bold'" font-size="6.158">Reminders</text><path stroke-miterlimit="10" d="M8-14.5h10M-179 16.5h17"></path><path d="M-170.802 31.318h8.721v8.642h-8.721z"></path><path d="M-164.455 42.312h4.747v-4.703h-4.747v4.703zm5.189.437h-5.63V37.17h5.63v5.579zm-6.955 1.313h8.279v-8.203h-8.279v8.203zm8.721.438h-9.163v-9.079h9.163V44.5z"></path><path d="M-166.149 44.133l-.143-.142 8.279-8.204.142.142z"></path><path d="M-179 58h35v32.5h-35z"></path><text transform="translate(-179 60.13)"><tspan x="0" y="0" font-family="'Helvetica-Bold'" font-size="3">Strokes</tspan><tspan x="0" y="5" font-family="'Helvetica'" font-size="2.4">Try to keep strokes at 4px</tspan><tspan x="0" y="10" font-family="'Helvetica'" font-size="2.4">Minimum stroke weight is 2px</tspan><tspan x="0" y="14.5" font-family="'Helvetica'" font-size="2.4">For thicker strokes use even </tspan><tspan x="0" y="17.5" font-family="'Helvetica'" font-size="2.4">numbers: 6px, 8px etc.</tspan><tspan x="0" y="22" font-family="'Helvetica-Bold'" font-size="2.4">Remember to expand strokes </tspan><tspan x="0" y="25" font-family="'Helvetica-Bold'" font-size="2.4">before saving as an SVG</tspan></text><path d="M-136.5 58h35v32.5h-35z"></path><text transform="translate(-136.5 60.13)"><tspan x="0" y="0" font-family="'Helvetica-Bold'" font-size="3">Size</tspan><tspan x="0" y="5" font-family="'Helvetica'" font-size="2.4">Cannot be wider or taller than </tspan><tspan x="0" y="8.5" font-family="'Helvetica'" font-size="2.4">100px (artboard size)</tspan><tspan x="0" y="13.5" font-family="'Helvetica'" font-size="2.4">Scale your icon to fill as much of </tspan><tspan x="0" y="16.5" font-family="'Helvetica'" font-size="2.4">the artboard as possible</tspan></text><path d="M-94 58h35v32.5h-35z"></path><text transform="translate(-94 60.13)"><tspan x="0" y="0" font-family="'Helvetica-Bold'" font-size="3">Ungroup</tspan><tspan x="0" y="5" font-family="'Helvetica'" font-size="2.4">If your design has more than one </tspan><tspan x="0" y="8" font-family="'Helvetica'" font-size="2.4">shape, make sure to ungroup</tspan></text><path d="M-50 58h35v32.5h-35z"></path><text transform="translate(-50 60.13)"><tspan x="0" y="0" font-family="'Helvetica-Bold'" font-size="3">Save as</tspan><tspan x="0" y="5" font-family="'Helvetica'" font-size="2.4">Save as .SVG and make sure “Use </tspan><tspan x="0" y="8" font-family="'Helvetica'" font-size="2.4">Artboards” is checked</tspan></text><text transform="matrix(1.0074 0 0 1 -125.542 30.593)" font-family="'Helvetica'" font-size="2.573">100px</text><text transform="matrix(1.0074 0 0 1 -41 39)" font-family="'Helvetica-Bold'" font-size="5.146">.SVG</text><path d="M-126.514 34.815h10.261V45h-10.261zM-126.477 31.766h.522v2.337h-.522zM-116.813 31.766h.523v2.337h-.523z"></path><path d="M-127 32.337h11.233v.572H-127zM-83.805 33.844H-73.5V44h-10.305zM-76.809 28.707h3.308v3.261h-3.308z"></path><path stroke="#FFF" stroke-miterlimit="10" d="M-178.5 22.5h30v30h-30zM-136.5 22.5h30v30h-30zM-93.5 22.5h30v30h-30zM-49.5 22.5h30v30h-30z"></path><g><path d="M15.484 71.607h-.003c-5.185 0-9.542-3.72-10.351-8.847-.904-5.713 3.006-11.095 8.713-11.996l15.056-2.387c5.831-.923 11.094 3.052 11.996 8.717a10.417 10.417 0 0 1-1.875 7.804 10.416 10.416 0 0 1-6.842 4.188L17.132 71.48c-.557.089-1.104.127-1.648.127zm5.198-19.915l-6.529 1.033c-4.625.733-7.796 5.094-7.063 9.726a8.46 8.46 0 0 0 8.391 7.17h.003c.439 0 .889-.032 1.338-.102l6.363-1.011c-2.854-2.757-4.303-5.994-4.303-9.644.004-2.983.993-5.563 1.8-7.172zM35.464 17.879l-16.191-.566-.401-.006a11.04 11.04 0 0 0-11.07 10.696c-.211 6.104 4.582 11.246 10.69 11.467l16.182.569.397.006h.004c5.998 0 10.86-4.698 11.075-10.7.216-6.101-4.578-11.248-10.686-11.466zm-.392 20.181l-7.461-.259c1.48-1.885 3.648-5.4 3.648-9.786 0-2.912-.955-5.726-2.848-8.394l6.984.243c5.011.18 8.948 4.404 8.77 9.412a9.07 9.07 0 0 1-9.093 8.784zM93.721 19.615c-.861-1.675-2.303-2.902-4.055-3.465l-17.995-5.817A6.885 6.885 0 0 0 69.559 10c-3.136 0-5.918 2.077-6.917 5.167L43.5 74.476c-.606 1.871-.475 3.857.37 5.591.847 1.744 2.311 3.027 4.123 3.61l17.993 5.811a6.864 6.864 0 0 0 2.112.332c3.136 0 5.918-2.077 6.917-5.17l19.147-59.306c.62-1.928.462-3.964-.441-5.729zm-22.373-3.313a3.847 3.847 0 0 1 3.839 3.84 3.847 3.847 0 0 1-3.839 3.842 3.85 3.85 0 0 1-3.845-3.842 3.85 3.85 0 0 1 3.845-3.84zm-3.715 11.141a3.845 3.845 0 0 1 3.842 3.839 3.848 3.848 0 0 1-3.842 3.844 3.841 3.841 0 1 1 0-7.683zm-3.711 11.142a3.842 3.842 0 0 1 3.844 3.835 3.847 3.847 0 0 1-3.844 3.841 3.849 3.849 0 0 1-3.842-3.841 3.843 3.843 0 0 1 3.842-3.835zM60.213 49.72a3.841 3.841 0 0 1 3.838 3.838 3.843 3.843 0 0 1-3.838 3.842 3.85 3.85 0 0 1-3.845-3.842 3.848 3.848 0 0 1 3.845-3.838zm-7.43 29.963c-2.118 0-3.845-1.723-3.845-3.834 0-2.122 1.727-3.845 3.845-3.845s3.839 1.723 3.839 3.845a3.842 3.842 0 0 1-3.839 3.834zm3.712-11.142a3.842 3.842 0 0 1-3.839-3.835c0-2.121 1.721-3.845 3.839-3.845s3.845 1.724 3.845 3.845a3.847 3.847 0 0 1-3.845 3.835zm9.624 15.142a3.841 3.841 0 0 1 0-7.68 3.85 3.85 0 0 1 3.845 3.841 3.847 3.847 0 0 1-3.845 3.839zm3.712-11.135c-2.118 0-3.839-1.724-3.839-3.842s1.721-3.842 3.839-3.842 3.839 1.724 3.839 3.842-1.721 3.842-3.839 3.842zm3.712-11.143a3.845 3.845 0 0 1-3.839-3.841 3.844 3.844 0 0 1 3.839-3.838 3.844 3.844 0 0 1 3.841 3.838 3.845 3.845 0 0 1-3.841 3.841zm3.715-11.141a3.845 3.845 0 0 1-3.842-3.841 3.845 3.845 0 0 1 7.687 0 3.846 3.846 0 0 1-3.845 3.841zm3.715-11.135a3.841 3.841 0 1 1 0-7.683 3.84 3.84 0 0 1 0 7.683zm3.711-11.145a3.848 3.848 0 0 1-3.844-3.835 3.852 3.852 0 0 1 3.844-3.845 3.85 3.85 0 0 1 3.842 3.845 3.845 3.845 0 0 1-3.842 3.835z"></path></g></g><!----></svg>