<svg data-v-423bf9ae="" xmlns="http://www.w3.org/2000/svg" viewBox="0 0 548.2314134004636 163" class="iconAbove"><!----><!----><!----><g data-v-423bf9ae="" id="ae560be5-0802-4d09-beaa-171fb970625a" fill="black" transform="matrix(4.958677291870117,0,0,4.958677291870117,-2.4297311305999756,97.04959106445312)"><path d="M0.49 3.85L1.19 3.85L1.23 4.27L1.23 4.27Q1.93 3.77 2.31 3.77L2.31 3.77L2.31 3.77Q3.23 3.77 3.58 4.37L3.58 4.37L3.58 4.37Q4.37 3.77 4.96 3.77L4.96 3.77L4.96 3.77Q5.87 3.77 6.20 4.33L6.20 4.33L6.20 4.33Q6.54 4.89 6.54 6.05L6.54 6.05L6.54 10.50L5.80 10.50L5.80 6.05L5.80 6.05Q5.80 5.25 5.63 4.87L5.63 4.87L5.63 4.87Q5.46 4.48 4.98 4.48L4.98 4.48L4.98 4.48Q4.51 4.48 3.81 4.93L3.81 4.93L3.81 4.93Q3.89 5.40 3.89 6.05L3.89 6.05L3.89 8.37L3.15 8.37L3.15 6.05L3.15 6.05Q3.15 5.25 2.98 4.87L2.98 4.87L2.98 4.87Q2.80 4.48 2.32 4.48L2.32 4.48L2.32 4.48Q1.85 4.48 1.23 4.93L1.23 4.93L1.23 10.50L0.49 10.50L0.49 3.85ZM7.94 7.18L7.94 7.18L7.94 7.18Q7.94 5.57 8.60 4.67L8.60 4.67L8.60 4.67Q9.27 3.77 10.54 3.77L10.54 3.77L10.54 3.77Q11.82 3.77 12.44 4.61L12.44 4.61L12.44 4.61Q13.06 5.45 13.06 6.85L13.06 6.85L13.02 7.55L8.74 7.55L8.74 7.55Q8.81 8.60 9.30 9.25L9.30 9.25L9.30 9.25Q9.79 9.90 10.65 9.90L10.65 9.90L10.65 9.90Q11.51 9.90 12.67 9.49L12.67 9.49L12.88 10.19L12.88 10.19Q11.75 10.63 10.75 10.63L10.75 10.63L10.75 10.63Q9.38 10.63 8.66 9.71L8.66 9.71L8.66 9.71Q7.94 8.79 7.94 7.18ZM10.60 4.48L10.60 4.48L10.60 4.48Q8.83 4.48 8.74 6.85L8.74 6.85L12.26 6.85L12.26 6.85Q12.26 4.48 10.60 4.48ZM16.24 7.95L16.24 4.65L15.06 4.65L15.06 3.95L16.24 3.95L16.24 2.34L16.98 2.20L16.98 3.95L19.64 3.95L19.64 4.65L16.98 4.65L16.98 7.92L16.98 7.92Q16.98 9.02 17.20 9.46L17.20 9.46L17.20 9.46Q17.42 9.91 18.09 9.91L18.09 9.91L18.09 9.91Q18.76 9.91 19.57 9.65L19.57 9.65L19.74 10.35L19.74 10.35Q18.93 10.64 18.23 10.64L18.23 10.64L18.23 10.64Q17.53 10.64 17.13 10.46L17.13 10.46L17.13 10.46Q16.73 10.28 16.54 9.88L16.54 9.88L16.54 9.88Q16.35 9.48 16.30 9.06L16.30 9.06L16.30 9.06Q16.24 8.64 16.24 7.95L16.24 7.95ZM24.05 9.90L24.05 9.90L24.05 9.90Q24.57 9.90 25.18 9.57L25.18 9.57L25.18 9.57Q25.79 9.24 26.07 8.96L26.07 8.96L26.07 7.29L26.07 7.29Q25.14 7.22 24.30 7.22L24.30 7.22L24.30 7.22Q23.46 7.22 23.04 7.58L23.04 7.58L23.04 7.58Q22.62 7.94 22.62 8.54L22.62 8.54L22.62 8.54Q22.62 9.90 24.05 9.90ZM24.04 10.63L24.04 10.63L24.04 10.63Q23.02 10.63 22.43 10.10L22.43 10.10L22.43 10.10Q21.84 9.58 21.84 8.61L21.84 8.61L21.84 8.61Q21.84 7.64 22.48 7.11L22.48 7.11L22.48 7.11Q23.13 6.57 24.19 6.57L24.19 6.57L24.19 6.57Q25.26 6.57 26.07 6.65L26.07 6.65L26.07 6.65Q26.07 5.40 25.76 4.95L25.76 4.95L25.76 4.95Q25.45 4.49 24.51 4.49L24.51 4.49L24.51 4.49Q23.58 4.49 22.30 4.94L22.30 4.94L22.09 4.24L22.09 4.24Q23.39 3.77 24.44 3.77L24.44 3.77L24.44 3.77Q25.83 3.77 26.32 4.38L26.32 4.38L26.32 4.38Q26.81 5.00 26.81 6.54L26.81 6.54L26.81 9.48L26.92 10.54L26.21 10.61L26.07 9.77L26.07 9.77Q25.75 10.05 25.16 10.34L25.16 10.34L25.16 10.34Q24.57 10.63 24.04 10.63ZM29.78 10.50L29.08 10.50L29.08 1.20L29.82 1.20L29.82 4.49L29.82 4.49Q30.87 3.77 31.72 3.77L31.72 3.77L31.72 3.77Q32.98 3.77 33.67 4.63L33.67 4.63L33.67 4.63Q34.36 5.49 34.36 7.08L34.36 7.08L34.36 7.08Q34.36 8.68 33.59 9.65L33.59 9.65L33.59 9.65Q32.82 10.63 31.49 10.63L31.49 10.63L31.49 10.63Q30.67 10.63 29.81 10.22L29.81 10.22L29.78 10.50ZM33.56 7.10L33.56 7.10L33.56 7.10Q33.56 5.87 33.08 5.18L33.08 5.18L33.08 5.18Q32.59 4.49 31.68 4.49L31.68 4.49L31.68 4.49Q30.77 4.49 29.82 5.29L29.82 5.29L29.82 9.49L29.82 9.49Q30.11 9.63 30.63 9.77L30.63 9.77L30.63 9.77Q31.14 9.90 31.46 9.90L31.46 9.90L31.46 9.90Q32.44 9.90 33.00 9.11L33.00 9.11L33.00 9.11Q33.56 8.33 33.56 7.10ZM38.05 9.90L38.05 9.90L38.05 9.90Q38.57 9.90 39.18 9.57L39.18 9.57L39.18 9.57Q39.79 9.24 40.07 8.96L40.07 8.96L40.07 7.29L40.07 7.29Q39.14 7.22 38.30 7.22L38.30 7.22L38.30 7.22Q37.46 7.22 37.04 7.58L37.04 7.58L37.04 7.58Q36.62 7.94 36.62 8.54L36.62 8.54L36.62 8.54Q36.62 9.90 38.05 9.90ZM38.04 10.63L38.04 10.63L38.04 10.63Q37.02 10.63 36.43 10.10L36.43 10.10L36.43 10.10Q35.84 9.58 35.84 8.61L35.84 8.61L35.84 8.61Q35.84 7.64 36.48 7.11L36.48 7.11L36.48 7.11Q37.13 6.57 38.19 6.57L38.19 6.57L38.19 6.57Q39.26 6.57 40.07 6.65L40.07 6.65L40.07 6.65Q40.07 5.40 39.76 4.95L39.76 4.95L39.76 4.95Q39.45 4.49 38.51 4.49L38.51 4.49L38.51 4.49Q37.58 4.49 36.30 4.94L36.30 4.94L36.09 4.24L36.09 4.24Q37.39 3.77 38.44 3.77L38.44 3.77L38.44 3.77Q39.83 3.77 40.32 4.38L40.32 4.38L40.32 4.38Q40.81 5.00 40.81 6.54L40.81 6.54L40.81 9.48L40.92 10.54L40.21 10.61L40.07 9.77L40.07 9.77Q39.75 10.05 39.16 10.34L39.16 10.34L39.16 10.34Q38.57 10.63 38.04 10.63ZM43.09 10.18L43.09 10.18L43.27 9.45L43.27 9.45Q44.66 9.91 45.42 9.91L45.42 9.91L45.42 9.91Q46.17 9.91 46.59 9.58L46.59 9.58L46.59 9.58Q47.00 9.25 47.00 8.71L47.00 8.71L47.00 8.71Q47.00 8.16 46.67 7.90L46.67 7.90L46.67 7.90Q46.34 7.64 45.30 7.41L45.30 7.41L45.30 7.41Q44.27 7.17 43.75 6.72L43.75 6.72L43.75 6.72Q43.23 6.30 43.23 5.46L43.23 5.46L43.23 5.46Q43.23 4.62 43.87 4.18L43.87 4.18L43.87 4.18Q44.51 3.74 45.51 3.74L45.51 3.74L45.51 3.74Q46.52 3.74 47.70 4.19L47.70 4.19L47.50 4.84L47.50 4.84Q46.31 4.45 45.58 4.45L45.58 4.45L45.58 4.45Q44.86 4.45 44.44 4.70L44.44 4.70L44.44 4.70Q44.02 4.98 44.02 5.46L44.02 5.46L44.02 5.46Q44.02 5.94 44.39 6.20L44.39 6.20L44.39 6.20Q44.76 6.47 45.82 6.73L45.82 6.73L45.82 6.73Q46.89 7 47.33 7.41L47.33 7.41L47.33 7.41Q47.78 7.83 47.78 8.71L47.78 8.71L47.78 8.71Q47.78 9.59 47.18 10.11L47.18 10.11L47.18 10.11Q46.59 10.63 45.50 10.63L45.50 10.63L45.50 10.63Q44.41 10.63 43.09 10.18ZM49.94 7.18L49.94 7.18L49.94 7.18Q49.94 5.57 50.60 4.67L50.60 4.67L50.60 4.67Q51.27 3.77 52.54 3.77L52.54 3.77L52.54 3.77Q53.82 3.77 54.44 4.61L54.44 4.61L54.44 4.61Q55.06 5.45 55.06 6.85L55.06 6.85L55.02 7.55L50.74 7.55L50.74 7.55Q50.81 8.60 51.30 9.25L51.30 9.25L51.30 9.25Q51.79 9.90 52.65 9.90L52.65 9.90L52.65 9.90Q53.51 9.90 54.67 9.49L54.67 9.49L54.88 10.19L54.88 10.19Q53.75 10.63 52.75 10.63L52.75 10.63L52.75 10.63Q51.38 10.63 50.66 9.71L50.66 9.71L50.66 9.71Q49.94 8.79 49.94 7.18ZM52.60 4.48L52.60 4.48L52.60 4.48Q50.83 4.48 50.74 6.85L50.74 6.85L54.26 6.85L54.26 6.85Q54.26 4.48 52.60 4.48ZM63 12.29L56 12.29L56 11.69L63 11.69L63 12.29ZM63.49 3.85L64.19 3.85L64.23 4.27L64.23 4.27Q64.93 3.77 65.31 3.77L65.31 3.77L65.31 3.77Q66.23 3.77 66.58 4.37L66.58 4.37L66.58 4.37Q67.37 3.77 67.96 3.77L67.96 3.77L67.96 3.77Q68.87 3.77 69.20 4.33L69.20 4.33L69.20 4.33Q69.54 4.89 69.54 6.05L69.54 6.05L69.54 10.50L68.80 10.50L68.80 6.05L68.80 6.05Q68.80 5.25 68.63 4.87L68.63 4.87L68.63 4.87Q68.46 4.48 67.98 4.48L67.98 4.48L67.98 4.48Q67.51 4.48 66.81 4.93L66.81 4.93L66.81 4.93Q66.89 5.40 66.89 6.05L66.89 6.05L66.89 8.37L66.15 8.37L66.15 6.05L66.15 6.05Q66.15 5.25 65.98 4.87L65.98 4.87L65.98 4.87Q65.80 4.48 65.32 4.48L65.32 4.48L65.32 4.48Q64.85 4.48 64.23 4.93L64.23 4.93L64.23 10.50L63.49 10.50L63.49 3.85ZM73.05 9.90L73.05 9.90L73.05 9.90Q73.57 9.90 74.18 9.57L74.18 9.57L74.18 9.57Q74.79 9.24 75.07 8.96L75.07 8.96L75.07 7.29L75.07 7.29Q74.14 7.22 73.30 7.22L73.30 7.22L73.30 7.22Q72.46 7.22 72.04 7.58L72.04 7.58L72.04 7.58Q71.62 7.94 71.62 8.54L71.62 8.54L71.62 8.54Q71.62 9.90 73.05 9.90ZM73.04 10.63L73.04 10.63L73.04 10.63Q72.02 10.63 71.43 10.10L71.43 10.10L71.43 10.10Q70.84 9.58 70.84 8.61L70.84 8.61L70.84 8.61Q70.84 7.64 71.48 7.11L71.48 7.11L71.48 7.11Q72.13 6.57 73.19 6.57L73.19 6.57L73.19 6.57Q74.26 6.57 75.07 6.65L75.07 6.65L75.07 6.65Q75.07 5.40 74.76 4.95L74.76 4.95L74.76 4.95Q74.45 4.49 73.51 4.49L73.51 4.49L73.51 4.49Q72.58 4.49 71.30 4.94L71.30 4.94L71.09 4.24L71.09 4.24Q72.39 3.77 73.44 3.77L73.44 3.77L73.44 3.77Q74.83 3.77 75.32 4.38L75.32 4.38L75.32 4.38Q75.81 5.00 75.81 6.54L75.81 6.54L75.81 9.48L75.92 10.54L75.21 10.61L75.07 9.77L75.07 9.77Q74.75 10.05 74.16 10.34L74.16 10.34L74.16 10.34Q73.57 10.63 73.04 10.63ZM78.06 3.85L78.78 3.85L78.81 4.41L78.81 4.41Q80.16 3.77 81.06 3.77L81.06 3.77L81.06 3.77Q81.96 3.77 82.47 4.38L82.47 4.38L82.47 4.38Q82.98 5.00 82.98 6.06L82.98 6.06L82.98 10.50L82.24 10.50L82.24 6.06L82.24 6.06Q82.24 5.38 81.90 4.93L81.90 4.93L81.90 4.93Q81.56 4.49 80.89 4.49L80.89 4.49L80.89 4.49Q80.22 4.49 78.81 5.11L78.81 5.11L78.81 10.50L78.06 10.50L78.06 3.85ZM87.05 9.90L87.05 9.90L87.05 9.90Q87.57 9.90 88.18 9.57L88.18 9.57L88.18 9.57Q88.79 9.24 89.07 8.96L89.07 8.96L89.07 7.29L89.07 7.29Q88.14 7.22 87.30 7.22L87.30 7.22L87.30 7.22Q86.46 7.22 86.04 7.58L86.04 7.58L86.04 7.58Q85.62 7.94 85.62 8.54L85.62 8.54L85.62 8.54Q85.62 9.90 87.05 9.90ZM87.04 10.63L87.04 10.63L87.04 10.63Q86.02 10.63 85.43 10.10L85.43 10.10L85.43 10.10Q84.84 9.58 84.84 8.61L84.84 8.61L84.84 8.61Q84.84 7.64 85.48 7.11L85.48 7.11L85.48 7.11Q86.13 6.57 87.19 6.57L87.19 6.57L87.19 6.57Q88.26 6.57 89.07 6.65L89.07 6.65L89.07 6.65Q89.07 5.40 88.76 4.95L88.76 4.95L88.76 4.95Q88.45 4.49 87.51 4.49L87.51 4.49L87.51 4.49Q86.58 4.49 85.30 4.94L85.30 4.94L85.09 4.24L85.09 4.24Q86.39 3.77 87.44 3.77L87.44 3.77L87.44 3.77Q88.83 3.77 89.32 4.38L89.32 4.38L89.32 4.38Q89.81 5.00 89.81 6.54L89.81 6.54L89.81 9.48L89.92 10.54L89.21 10.61L89.07 9.77L89.07 9.77Q88.75 10.05 88.16 10.34L88.16 10.34L88.16 10.34Q87.57 10.63 87.04 10.63ZM96.99 3.85L96.99 8.89L97.03 10.82L97.03 10.82Q97.03 12.07 96.28 12.68L96.28 12.68L96.28 12.68Q95.54 13.30 94.43 13.30L94.43 13.30L94.43 13.30Q93.32 13.30 91.91 12.74L91.91 12.74L92.16 12.04L92.16 12.04Q93.55 12.57 94.37 12.57L94.37 12.57L94.37 12.57Q95.19 12.57 95.74 12.14L95.74 12.14L95.74 12.14Q96.29 11.72 96.29 10.84L96.29 10.84L96.29 10.84Q96.29 10.72 96.27 10.34L96.27 10.34L96.27 10.34Q96.25 9.95 96.25 9.77L96.25 9.77L96.25 9.77Q95.23 10.49 94.35 10.49L94.35 10.49L94.35 10.49Q93.09 10.49 92.41 9.63L92.41 9.63L92.41 9.63Q91.73 8.76 91.73 7.17L91.73 7.17L91.73 7.17Q91.73 5.59 92.48 4.68L92.48 4.68L92.48 4.68Q93.24 3.77 94.58 3.77L94.58 3.77L94.58 3.77Q95.33 3.77 96.25 4.26L96.25 4.26L96.28 3.85L96.99 3.85ZM92.53 7.16L92.53 7.16L92.53 7.16Q92.53 8.39 93.00 9.07L93.00 9.07L93.00 9.07Q93.48 9.76 94.39 9.76L94.39 9.76L94.39 9.76Q95.30 9.76 96.25 8.96L96.25 8.96L96.25 5.04L96.25 5.04Q95.38 4.49 94.61 4.49L94.61 4.49L94.61 4.49Q93.62 4.49 93.07 5.21L93.07 5.21L93.07 5.21Q92.53 5.94 92.53 7.16ZM98.94 7.18L98.94 7.18L98.94 7.18Q98.94 5.57 99.60 4.67L99.60 4.67L99.60 4.67Q100.27 3.77 101.54 3.77L101.54 3.77L101.54 3.77Q102.82 3.77 103.44 4.61L103.44 4.61L103.44 4.61Q104.06 5.45 104.06 6.85L104.06 6.85L104.02 7.55L99.74 7.55L99.74 7.55Q99.81 8.60 100.30 9.25L100.30 9.25L100.30 9.25Q100.79 9.90 101.65 9.90L101.65 9.90L101.65 9.90Q102.51 9.90 103.67 9.49L103.67 9.49L103.88 10.19L103.88 10.19Q102.75 10.63 101.75 10.63L101.75 10.63L101.75 10.63Q100.38 10.63 99.66 9.71L99.66 9.71L99.66 9.71Q98.94 8.79 98.94 7.18ZM101.60 4.48L101.60 4.48L101.60 4.48Q99.83 4.48 99.74 6.85L99.74 6.85L103.26 6.85L103.26 6.85Q103.26 4.48 101.60 4.48ZM107.59 4.55L106.27 4.55L106.27 3.85L108.33 3.85L108.36 4.66L108.36 4.66Q108.81 4.38 109.62 4.10L109.62 4.10L109.62 4.10Q110.43 3.82 111.05 3.77L111.05 3.77L111.05 4.59L111.05 4.59Q110.47 4.63 109.63 4.87L109.63 4.87L109.63 4.87Q108.78 5.11 108.36 5.36L108.36 5.36L108.36 9.80L110.60 9.80L110.60 10.50L106.27 10.50L106.27 9.80L107.59 9.80L107.59 4.55Z"></path></g><!----><g data-v-423bf9ae="" id="c8bcfddb-fe45-49a3-9036-254f45285bfe" transform="matrix(3.75,0,0,3.75,228.125,0)" stroke="none" fill="black"><path d="M14 19h11v-3H14v3zm3-2v1h-1v-1h1zM14 23a1 1 0 0 0 1 1h9a1 1 0 0 0 1-1v-3H14v3zm2-2h1v1h-1v-1zM14 12v3h11v-3a1 1 0 0 0-1-1h-9a1 1 0 0 0-1 1zm2 1h1v1h-1v-1zM12 5h1v1h-1zM14 5h1v1h-1zM16 5h1v1h-1zM18 5h1v1h-1zM20 5h1v1h-1zM20 7h1v1h-1zM20 9h1v1h-1zM12 18h1v1h-1zM10 18h1v1h-1zM8 18h1v1H8zM6 18h1v1H6zM4 16h1v1H4zM4 18h1v1H4zM4 14h1v1H4zM0 12a1 1 0 0 0 1 1h9a1 1 0 0 0 1-1V9H0v3zm2-2h1v1H2v-1zM11 1a1 1 0 0 0-1-1H1a1 1 0 0 0-1 1v3h11V1zM3 3H2V2h1v1zM11 5H0v3h11V5zM2 7V6h1v1H2z"></path></g><!----></svg>