<svg data-v-423bf9ae="" xmlns="http://www.w3.org/2000/svg" viewBox="0 0 1005 90" class="iconLeft"><!----><!----><!----><g data-v-423bf9ae="" id="56548e53-c3e8-42c4-baf3-070454839ba7" fill="#3A1C18" transform="matrix(5.617977142333984,0,0,5.617977142333984,111.47256469726562,-6.573031902313232)"><path d="M5.25 6.30L8.06 6.30L8.06 4.58L0.34 4.58L0.34 6.30L3.15 6.30L3.15 14.35L5.25 14.35ZM12.80 14.52C14.35 14.52 15.33 13.93 15.89 13.24L14.77 12.03C14.32 12.56 13.72 12.92 12.87 12.92C11.76 12.92 11.16 12.29 11.16 11.37L11.16 11.24L16.10 11.24L16.10 10.63C16.10 8.37 14.77 6.96 12.61 6.96C10.44 6.96 9.10 8.40 9.10 10.77C9.10 13.08 10.37 14.52 12.80 14.52ZM12.63 8.44C13.52 8.44 14.07 9.03 14.07 9.97L14.07 10.08L11.16 10.08L11.16 9.97C11.16 9.04 11.73 8.44 12.63 8.44ZM17.75 12.74L17.75 14.35L24.25 14.35L24.25 12.74L22.04 12.74L22.04 3.99L17.75 3.99L17.75 5.60L19.96 5.60L19.96 12.74ZM29.60 14.52C31.15 14.52 32.13 13.93 32.69 13.24L31.57 12.03C31.12 12.56 30.52 12.92 29.67 12.92C28.56 12.92 27.96 12.29 27.96 11.37L27.96 11.24L32.90 11.24L32.90 10.63C32.90 8.37 31.57 6.96 29.41 6.96C27.24 6.96 25.90 8.40 25.90 10.77C25.90 13.08 27.17 14.52 29.60 14.52ZM29.43 8.44C30.32 8.44 30.87 9.03 30.87 9.97L30.87 10.08L27.96 10.08L27.96 9.97C27.96 9.04 28.53 8.44 29.43 8.44ZM34.65 14.35L40.95 14.35L40.95 12.80L38.85 12.80L38.85 6.13L40.95 6.13L40.95 4.58L34.65 4.58L34.65 6.13L36.75 6.13L36.75 12.80L34.65 12.80ZM46.42 14.52C48.44 14.52 49.49 13.41 49.88 11.70L47.92 11.23C47.71 12.15 47.36 12.82 46.38 12.82C45.25 12.82 44.81 11.87 44.81 10.32L44.81 8.61C44.81 7.06 45.25 6.10 46.38 6.10C47.36 6.10 47.71 6.78 47.92 7.70L49.88 7.22C49.49 5.52 48.44 4.41 46.42 4.41C43.81 4.41 42.57 6.26 42.57 9.46C42.57 12.67 43.81 14.52 46.42 14.52ZM53.27 4.58L51.17 4.58L51.17 10.49C51.17 13.16 51.76 14.52 54.60 14.52C57.44 14.52 58.03 13.16 58.03 10.49L58.03 4.58L55.93 4.58L55.93 10.77C55.93 12.01 55.83 12.82 54.60 12.82C53.37 12.82 53.27 12.01 53.27 10.77ZM76.15 7.94L76.15 14.35L78.15 14.35L78.15 4.58L75.88 4.58L73.51 9.16L73.49 9.16L71.09 4.58L68.84 4.58L68.84 14.35L70.84 14.35L70.84 7.84L70.88 7.84L71.62 9.38L73.49 12.82L75.39 9.37L76.10 7.94ZM84.45 6.20C85.37 6.20 85.69 5.77 85.69 5.22L85.69 4.82C85.69 4.26 85.37 3.84 84.45 3.84C83.52 3.84 83.20 4.26 83.20 4.82L83.20 5.22C83.20 5.77 83.52 6.20 84.45 6.20ZM81.12 12.74L81.12 14.35L87.61 14.35L87.61 12.74L85.48 12.74L85.48 7.13L81.12 7.13L81.12 8.74L83.41 8.74L83.41 12.74ZM93.70 13.03L93.70 14.35L95.77 14.35L95.77 3.99L93.70 3.99L93.70 8.44L93.60 8.44C93.24 7.57 92.62 6.96 91.46 6.96C89.87 6.96 88.75 8.12 88.75 10.74C88.75 13.36 89.87 14.52 91.46 14.52C92.62 14.52 93.24 13.90 93.60 13.03ZM92.36 12.91C91.43 12.91 90.90 12.31 90.90 11.30L90.90 10.18C90.90 9.17 91.43 8.57 92.36 8.57C93.09 8.57 93.70 8.92 93.70 9.67L93.70 11.80C93.70 12.56 93.09 12.91 92.36 12.91ZM102.10 13.03L102.10 14.35L104.17 14.35L104.17 3.99L102.10 3.99L102.10 8.44L102.00 8.44C101.64 7.57 101.02 6.96 99.86 6.96C98.27 6.96 97.15 8.12 97.15 10.74C97.15 13.36 98.27 14.52 99.86 14.52C101.02 14.52 101.64 13.90 102.00 13.03ZM100.76 12.91C99.83 12.91 99.30 12.31 99.30 11.30L99.30 10.18C99.30 9.17 99.83 8.57 100.76 8.57C101.49 8.57 102.10 8.92 102.10 9.67L102.10 11.80C102.10 12.56 101.49 12.91 100.76 12.91ZM105.95 12.74L105.95 14.35L112.45 14.35L112.45 12.74L110.24 12.74L110.24 3.99L105.95 3.99L105.95 5.60L108.16 5.60L108.16 12.74ZM117.80 14.52C119.35 14.52 120.33 13.93 120.89 13.24L119.77 12.03C119.32 12.56 118.72 12.92 117.87 12.92C116.76 12.92 116.16 12.29 116.16 11.37L116.16 11.24L121.10 11.24L121.10 10.63C121.10 8.37 119.77 6.96 117.61 6.96C115.44 6.96 114.10 8.40 114.10 10.77C114.10 13.08 115.37 14.52 117.80 14.52ZM117.63 8.44C118.52 8.44 119.07 9.03 119.07 9.97L119.07 10.08L116.16 10.08L116.16 9.97C116.16 9.04 116.73 8.44 117.63 8.44ZM122.49 7.00L124.54 14.35L126.67 14.35L127.57 11.24L128.07 9.34L128.11 9.34L128.63 11.24L129.53 14.35L131.70 14.35L133.73 7.00L131.81 7.00L131.10 9.97L130.59 12.21L130.54 12.21L129.93 9.97L129.08 7.00L127.19 7.00L126.35 9.97L125.76 12.21L125.71 12.21L125.20 9.97L124.49 7.00ZM141.22 14.35L142.41 14.35L142.41 12.85L141.61 12.85L141.61 9.69C141.61 7.87 140.43 6.96 138.46 6.96C136.85 6.96 135.80 7.56 135.32 8.37L136.46 9.38C136.85 8.85 137.35 8.47 138.22 8.47C139.17 8.47 139.54 8.92 139.54 9.77L139.54 10.14L138.38 10.14C136.26 10.14 135.13 10.85 135.13 12.36C135.13 13.72 136.05 14.52 137.45 14.52C138.56 14.52 139.40 14.01 139.65 13.08L139.72 13.08C139.80 13.89 140.36 14.35 141.22 14.35ZM138.24 13.16C137.58 13.16 137.16 12.89 137.16 12.39L137.16 12.11C137.16 11.55 137.61 11.26 138.43 11.26L139.54 11.26L139.54 12.12C139.54 12.80 138.96 13.16 138.24 13.16ZM143.84 12.74L143.84 14.35L149.95 14.35L149.95 12.74L147.57 12.74L147.57 10.25C147.57 9.44 148.20 9.03 149.13 9.03L150.67 9.03L150.67 7.13L149.98 7.13C148.67 7.13 147.98 8.05 147.67 9.00L147.57 9.00L147.57 7.13L143.84 7.13L143.84 8.74L145.50 8.74L145.50 12.74ZM155.60 14.52C157.15 14.52 158.13 13.93 158.69 13.24L157.57 12.03C157.12 12.56 156.52 12.92 155.67 12.92C154.56 12.92 153.96 12.29 153.96 11.37L153.96 11.24L158.90 11.24L158.90 10.63C158.90 8.37 157.57 6.96 155.41 6.96C153.24 6.96 151.90 8.40 151.90 10.77C151.90 13.08 153.17 14.52 155.60 14.52ZM155.43 8.44C156.32 8.44 156.87 9.03 156.87 9.97L156.87 10.08L153.96 10.08L153.96 9.97C153.96 9.04 154.53 8.44 155.43 8.44Z"></path></g><defs data-v-423bf9ae=""><linearGradient data-v-423bf9ae="" gradientTransform="rotate(25)" id="39bc6548-98ad-4723-99a1-10e9dbaa7794" x1="0%" y1="0%" x2="100%" y2="0%"><stop data-v-423bf9ae="" offset="0%" style="stop-color: rgb(255, 90, 32); stop-opacity: 1;"></stop><stop data-v-423bf9ae="" offset="100%" style="stop-color: rgb(255, 172, 199); stop-opacity: 1;"></stop></linearGradient></defs><g data-v-423bf9ae="" id="daf5608d-86a7-407d-bf9b-464725aa6dd1" transform="matrix(1.303025722503662,0,0,1.303025722503662,-11.469162940979004,-13.095405578613281)" stroke="none" fill="url(#39bc6548-98ad-4723-99a1-10e9dbaa7794)"><path d="M77.546 34.59H12.455a3.288 3.288 0 0 0-3.288 3.288v14.246a3.288 3.288 0 0 0 3.288 3.287h65.091a3.287 3.287 0 0 0 3.287-3.287V37.877a3.287 3.287 0 0 0-3.287-3.287zM57.491 48.178H16.508v-6.355h40.983v6.355zm14.738-.219a2.958 2.958 0 1 1 0-5.917 2.958 2.958 0 0 1 0 5.917zm5.317 10.506H12.455a3.288 3.288 0 0 0-3.288 3.287v14.246a3.288 3.288 0 0 0 3.288 3.287h65.091a3.287 3.287 0 0 0 3.287-3.287V61.752a3.287 3.287 0 0 0-3.287-3.287zM57.491 72.053H16.508v-6.355h40.983v6.355zm14.738-.219a2.958 2.958 0 1 1 0-5.917 2.958 2.958 0 0 1 0 5.917zm5.317-61.619H12.455a3.288 3.288 0 0 0-3.288 3.288v14.246a3.288 3.288 0 0 0 3.288 3.287h65.091a3.287 3.287 0 0 0 3.287-3.287V13.502a3.287 3.287 0 0 0-3.287-3.287zM57.491 23.803H16.508v-6.355h40.983v6.355zm14.738-.219a2.958 2.958 0 1 1 0-5.917 2.958 2.958 0 0 1 0 5.917z"></path></g><!----></svg>